<?xml version="1.0" encoding="UTF-8" standalone="no"?>
<!-- Created with Inkscape (http://www.inkscape.org/) -->

<svg
   xmlns:dc="http://purl.org/dc/elements/1.1/"
   xmlns:cc="http://creativecommons.org/ns#"
   xmlns:rdf="http://www.w3.org/1999/02/22-rdf-syntax-ns#"
   xmlns:svg="http://www.w3.org/2000/svg"
   xmlns="http://www.w3.org/2000/svg"
   xmlns:sodipodi="http://sodipodi.sourceforge.net/DTD/sodipodi-0.dtd"
   xmlns:inkscape="http://www.inkscape.org/namespaces/inkscape"
   width="148.68996mm"
   height="85.397774mm"
   viewBox="0 0 526.85418 302.59055"
   id="svg4372"
   version="1.1"
   inkscape:version="0.91 r13725"
   sodipodi:docname="ngasp_white.svg">
  <defs
     id="defs4374" />
  <sodipodi:namedview
     id="base"
     pagecolor="#ffffff"
     bordercolor="#666666"
     borderopacity="1.0"
     inkscape:pageopacity="0.0"
     inkscape:pageshadow="2"
     inkscape:zoom="0.7"
     inkscape:cx="-127.33844"
     inkscape:cy="-250.71518"
     inkscape:document-units="px"
     inkscape:current-layer="layer1"
     showgrid="false"
     fit-margin-top="0"
     fit-margin-left="0"
     fit-margin-right="0"
     fit-margin-bottom="0"
     inkscape:window-width="1920"
     inkscape:window-height="1163"
     inkscape:window-x="2560"
     inkscape:window-y="115"
     inkscape:window-maximized="1"
     showguides="false"
     inkscape:guide-bbox="true">
    <sodipodi:guide
       position="-4.49738e-05,301.90105"
       orientation="1,0"
       id="guide6817" />
    <sodipodi:guide
       position="480.83256,145.83253"
       orientation="0,1"
       id="guide6819" />
    <sodipodi:guide
       position="355.57365,-12.761481"
       orientation="0,1"
       id="guide6821" />
    <sodipodi:guide
       position="378.80716,-179.43664"
       orientation="0,1"
       id="guide6823" />
    <sodipodi:guide
       position="327.28937,-351.16258"
       orientation="0,1"
       id="guide6825" />
    <sodipodi:guide
       position="537.4011,-523.89867"
       orientation="0,1"
       id="guide6827" />
    <sodipodi:guide
       position="324.64279,-669.98848"
       orientation="1,0"
       id="guide6829" />
    <sodipodi:guide
       position="361.24994,-727.66705"
       orientation="0,1"
       id="guide6904" />
    <sodipodi:guide
       position="424.6428,-695.88134"
       orientation="1,0"
       id="guide6906" />
    <sodipodi:guide
       position="343.39279,-682.66705"
       orientation="1,0"
       id="guide6908" />
    <sodipodi:guide
       position="405.8928,-711.41705"
       orientation="1,0"
       id="guide6910" />
    <sodipodi:guide
       position="366.78565,-718.38134"
       orientation="0,1"
       id="guide6917" />
    <sodipodi:guide
       position="361.42851,-737.13134"
       orientation="0,1"
       id="guide6919" />
    <sodipodi:guide
       position="370.71422,-723.02419"
       orientation="0,1"
       id="guide6936" />
    <sodipodi:guide
       position="368.21422,-732.30991"
       orientation="0,1"
       id="guide6938" />
    <sodipodi:guide
       position="343.39279,-718.38134"
       orientation="1,0"
       id="guide6940" />
    <sodipodi:guide
       position="344.61979,-719.10808"
       orientation="1,0"
       id="guide6942" />
    <sodipodi:guide
       position="404.77672,-718.38134"
       orientation="1,0"
       id="guide6944" />
    <sodipodi:guide
       position="376.91311,-690.66597"
       orientation="0,1"
       id="guide6946" />
    <sodipodi:guide
       position="417.19294,-713.64694"
       orientation="0,1"
       id="guide6950" />
    <sodipodi:guide
       position="413.65741,-741.80494"
       orientation="0,1"
       id="guide6952" />
    <sodipodi:guide
       position="347.23987,-751.90647"
       orientation="1,0"
       id="guide6954" />
    <sodipodi:guide
       position="403.08237,-714.68866"
       orientation="1,0"
       id="guide6956" />
    <sodipodi:guide
       position="422.59094,-715.09903"
       orientation="1,0"
       id="guide6958" />
    <sodipodi:guide
       position="327.16309,-744.45659"
       orientation="1,0"
       id="guide6960" />
    <sodipodi:guide
       position="264.10708,-694.63134"
       orientation="1,0"
       id="guide7008" />
  </sodipodi:namedview>
  <metadata
     id="metadata4377">
    <rdf:RDF>
      <cc:Work
         rdf:about="">
        <dc:format>image/svg+xml</dc:format>
        <dc:type
           rdf:resource="http://purl.org/dc/dcmitype/StillImage" />
        <dc:title></dc:title>
      </cc:Work>
    </rdf:RDF>
  </metadata>
  <g
     inkscape:label="Layer 1"
     inkscape:groupmode="layer"
     id="layer1"
     transform="translate(1511.1751,892.93347)"
     style="display:inline;opacity:1">
    <path
       sodipodi:nodetypes="csscssccssccsssss"
       inkscape:connector-curvature="0"
       id="path4300-4-0-8"
       d="m -1353.6251,-734.58246 c -31.9433,0 -49.7053,26.30105 -49.7053,49.77735 0,23.4759 21.0157,50.4494 49.7053,49.7763 29.5193,-0.6916 31.4257,-18.3832 31.4257,-18.3832 l 0,18.3832 c 0,8.6421 -8.8293,27.3213 -31.4257,27.3213 -26.7873,0 -31.9332,-27.3213 -31.9332,-27.3213 l -17.7721,0 c 0,0 6.4569,44.6859 49.7053,44.6859 31.4598,0 49.6489,-27.8682 49.6489,-44.6859 l 0,-49.7763 c 0.038,-17.0485 -18.2171,-49.76765 -49.6489,-49.77735 z m -0.5076,17.6483 c 14.9703,0.2198 31.4586,11.62315 31.4254,32.12905 -0.038,14.7266 -8.8699,31.3536 -30.9742,31.3931 -20.2769,0.064 -31.3412,-16.5593 -31.482,-31.3931 -0.1401,-14.9042 12.9407,-32.39805 31.0308,-32.12905 z"
       style="display:inline;opacity:1;fill:#ffffff;fill-opacity:1;stroke:none;stroke-width:0.55683357;stroke-linecap:butt;stroke-linejoin:miter;stroke-miterlimit:4;stroke-dasharray:none;stroke-opacity:1" />
    <path
       sodipodi:nodetypes="csscccccsssss"
       inkscape:connector-curvature="0"
       id="path4302-3-9-4"
       d="m -1247.0488,-734.58246 c -26.6306,0 -50.0231,21.05195 -49.7055,49.77735 0.2596,23.4747 21.0911,49.2863 50.0627,49.4192 8.1617,0.037 21.0343,-2.2521 30.8519,-10.596 l -0.1786,10.9531 18.6748,0 0,-49.7763 c 0.4744,-26.7218 -23.7054,-49.72879 -49.7053,-49.77735 z m 0,16.93401 c 14.9191,0.0503 31.4395,11.57204 31.6754,32.84334 0.1643,14.8147 -8.4766,29.6068 -31.6754,30.1431 -19.2495,0.445 -31.1058,-15.224 -31.4258,-30.1431 -0.4094,-19.1245 15.2566,-32.89784 31.4258,-32.84334 z"
       style="display:inline;opacity:1;fill:#ffffff;fill-opacity:1;stroke:none;stroke-width:0.55683357;stroke-linecap:butt;stroke-linejoin:miter;stroke-miterlimit:4;stroke-dasharray:none;stroke-opacity:1" />
    <path
       sodipodi:nodetypes="ccccssccsssss"
       inkscape:connector-curvature="0"
       id="path4304-2-5-6"
       d="m -1083.4891,-684.80511 0,94.4622 18.2233,0 0.967,-56.7744 c 9.1811,8.3912 19.6693,11.323 30.5152,11.4424 29.2191,0.3259 49.57392,-25.6554 49.32632,-49.1302 -0.3216,-30.5873 -25.58772,-49.45425 -49.00392,-49.45425 -34.3828,-1.6071 -50.0412,32.40575 -50.0279,49.45425 z m 50.1565,-32.12905 c 14.9192,0.064 30.6653,12.15185 31.2968,32.12905 0.5806,18.3711 -14.297,31.3392 -31.2968,31.7163 -14.7389,0.3259 -31.9662,-9.6835 -32.4491,-31.7163 -0.476,-21.7061 17.5299,-32.18355 32.4491,-32.12905 z"
       style="display:inline;opacity:1;fill:#ffffff;fill-opacity:1;stroke:none;stroke-width:0.55699998;stroke-linecap:butt;stroke-linejoin:miter;stroke-miterlimit:4;stroke-dasharray:none;stroke-opacity:1" />
    <path
       sodipodi:nodetypes="csccccccccc"
       inkscape:connector-curvature="0"
       id="path4298-1-8-4-0"
       d="m -1509.9031,-634.13161 c 0.3158,-50.665 0.3158,-50.665 0.3158,-50.665 -0.077,-30.3658 25.4877,-49.01438 49.6249,-49.01283 31.2432,-0.12423 51.213,29.90003 49.7613,49.18633 1.172,10.4105 -0.074,50.4915 -0.074,50.4915 l -18.496,0 0.5357,-50.4915 c 0.3718,-9.4813 -6.8555,-30.679 -31.5982,-32.32046 -24.315,0.75761 -31.6217,23.09166 -31.654,32.27716 l -0.4004,50.5348 z"
       style="display:inline;opacity:1;fill:#ffffff;fill-opacity:1;stroke:none;stroke-width:0.55683357;stroke-linecap:butt;stroke-linejoin:miter;stroke-miterlimit:4;stroke-dasharray:none;stroke-opacity:1" />
    <path
       sodipodi:nodetypes="cccccccccccc"
       inkscape:connector-curvature="0"
       id="path4306-1-9-7-4-3"
       d="m -1108.0829,-699.54825 c -5.0417,-11.96827 -15.703,-18.17939 -28.4394,-18.8551 -9.7852,0.14 -26.0307,7.27374 -30.2226,23.59105 38.0545,-0.20128 79.2833,-0.0988 79.2833,-0.0988 0.3584,41.59207 -20.6311,59.12566 -48.4995,58.69833 -27.9741,0.24876 -42.6932,-20.48087 -48.0661,-35.12105 l 20.0691,7.4e-4 c 14.2848,27.28186 54.2901,15.51005 57.4713,-4.79777 l -79.1191,-0.3108 c -5.6001,-35.75196 21.6707,-59.16403 49.626,-58.95029 25.2086,-0.21374 43.9332,21.65861 47.4268,35.84792 z"
       style="display:inline;opacity:1;fill:#ffffff;fill-opacity:1;stroke:none;stroke-width:0.55683357;stroke-linecap:butt;stroke-linejoin:miter;stroke-miterlimit:4;stroke-dasharray:none;stroke-opacity:1" />
    <path
       transform="translate(3.2042382e-5,-4.0570433e-6)"
       sodipodi:nodetypes="ccccccsccc"
       inkscape:connector-curvature="0"
       id="path4298"
       d="m -1509.8821,-792.2417 c -1.14,-42.98924 -9.1526,-90.4844 48.4075,-99.23123 44.9236,0.81003 51.1985,43.56836 50.7588,49.45419 1.172,10.4104 0,49.77704 0,49.77704 l -17.7817,0 0,-49.77704 c 0,0 0,-32.14188 -31.6875,-32.14188 -32.1437,0 -32.1437,32.14188 -32.1437,32.14188 l 0,49.77704 z"
       style="display:inline;opacity:1;fill:#ffffff;fill-opacity:1;stroke:none;stroke-width:0.55683357;stroke-linecap:butt;stroke-linejoin:miter;stroke-miterlimit:4;stroke-dasharray:none;stroke-opacity:1" />
    <path
       transform="translate(3.2042382e-5,-4.0570433e-6)"
       sodipodi:nodetypes="csscssccssccsssss"
       inkscape:connector-curvature="0"
       id="path4300"
       d="m -1353.7694,-891.80517 c -31.9433,0 -49.7053,26.30106 -49.7053,49.77734 0,23.47589 21.0157,50.44933 49.7053,49.77626 29.5193,-0.69161 31.4257,-18.38324 31.4257,-18.38324 l 0,18.38324 c 0,8.64212 -8.8293,27.32134 -31.4257,27.32134 -26.7873,0 -31.9332,-27.32134 -31.9332,-27.32134 l -17.7721,0 c 0,0 6.4569,44.68592 49.7053,44.68592 31.4598,0 49.6489,-27.8682 49.6489,-44.68592 l 0,-49.77626 c 0.038,-17.04852 -18.2171,-49.7676 -49.6489,-49.77734 z m -0.5076,17.64834 c 14.9703,0.2198 31.4586,11.62311 31.4254,32.129 -0.038,14.72653 -8.8699,31.35361 -30.9742,31.39302 -20.2769,0.0644 -31.3412,-16.55925 -31.482,-31.39302 -0.1401,-14.90427 12.9407,-32.39807 31.0308,-32.129 z"
       style="display:inline;opacity:1;fill:#ffffff;fill-opacity:1;stroke:none;stroke-width:0.55683357;stroke-linecap:butt;stroke-linejoin:miter;stroke-miterlimit:4;stroke-dasharray:none;stroke-opacity:1" />
    <path
       transform="translate(3.2042382e-5,-4.0570433e-6)"
       sodipodi:nodetypes="csscccccsssss"
       inkscape:connector-curvature="0"
       id="path4302"
       d="m -1247.1931,-891.80517 c -23.4163,0 -48.416,20.15904 -49.7055,49.77734 -1.0211,23.45391 26.2892,49.77626 49.7055,49.77626 10.669,0 21.9272,-5.4663 31.0305,-13.63167 l 0,13.63167 18.6748,0 0,-49.77626 c -1.8471,-29.40039 -24.0626,-49.37165 -49.7053,-49.77734 z m 0,17.64834 c 14.919,0.0644 31.4395,12.46481 31.6754,32.129 0.1778,14.81445 -9.1909,30.85678 -31.6754,31.39302 -19.2491,0.46197 -31.1058,-16.47397 -31.4258,-31.39302 -0.4094,-19.12453 16.5066,-32.18357 31.4258,-32.129 z"
       style="display:inline;opacity:1;fill:#ffffff;fill-opacity:1;stroke:none;stroke-width:0.55683357;stroke-linecap:butt;stroke-linejoin:miter;stroke-miterlimit:4;stroke-dasharray:none;stroke-opacity:1" />
    <path
       transform="translate(3.2042382e-5,-4.0570433e-6)"
       sodipodi:nodetypes="ccccssccsssss"
       inkscape:connector-curvature="0"
       id="path4304"
       d="m -1083.6334,-842.02783 0,94.46218 18.2233,0 0.967,-56.77441 c 9.181,8.39124 19.6692,11.32297 30.5151,11.44235 29.2191,0.32592 49.574,-25.65537 49.3264,-49.13012 -0.3216,-30.58733 -25.5878,-49.45427 -49.004,-49.45427 -34.3827,-1.6071 -50.0411,32.40575 -50.0278,49.45427 z m 50.1565,-32.129 c 14.9191,0.0644 30.6652,12.15178 31.2967,32.129 0.5806,18.37111 -14.297,31.3392 -31.2967,31.71628 -14.7389,0.32592 -31.9662,-9.68352 -32.4491,-31.71628 -0.476,-21.7061 17.5299,-32.18357 32.4491,-32.129 z"
       style="display:inline;opacity:1;fill:#ffffff;fill-opacity:1;stroke:none;stroke-width:0.55699998;stroke-linecap:butt;stroke-linejoin:miter;stroke-miterlimit:4;stroke-dasharray:none;stroke-opacity:1" />
    <path
       transform="translate(3.2042382e-5,-4.0570433e-6)"
       sodipodi:nodetypes="cccccccsccccccc"
       inkscape:connector-curvature="0"
       id="path4306-1"
       d="m -1108.5595,-857.78828 c -0.098,-12.50362 -16.427,-20.33045 -28.4861,-20.57002 -12.8496,0.23957 -24.7733,4.09375 -24.8461,16.62472 0.1455,15.09162 69.2752,3.9042 69.2182,41.36818 0.089,17.62447 -22.315,27.47341 -44.7001,27.28702 -21.859,0.31266 -48.5446,-9.66259 -48.6407,-34.40491 l 20.2059,-0.21327 c 0.031,12.4778 15.9132,19.7564 28.3743,19.83154 12.8461,0.0775 24.7745,-3.32294 24.8716,-15.76994 -0.1942,-15.007 -69.4518,-3.84833 -69.1626,-41.60441 -0.1931,-17.55615 22.2107,-27.65768 44.3325,-27.41127 22.4041,-0.24641 48.8079,9.85512 48.7761,34.82128 l -19.943,0.0411 0,-10e-6 z"
       style="display:inline;opacity:1;fill:#ffffff;fill-opacity:1;stroke:none;stroke-width:0.55683357;stroke-linecap:butt;stroke-linejoin:miter;stroke-miterlimit:4;stroke-dasharray:none;stroke-opacity:1" />
    <path
       transform="translate(-1511.1751,-892.93347)"
       sodipodi:nodetypes="ccccccccccccc"
       inkscape:connector-curvature="0"
       id="path4306-1-9-7"
       d="m -347.30899,1366.0763 c -5.497,-7.932 -14.2842,-15.2535 -26.3433,-15.0343 -11.5996,-0.2192 -25.4058,5.1023 -31.3103,24.089 38.7469,-0.2031 46.7096,-0.4094 80.7181,-0.025 0.3649,41.9666 -24.6351,58.2166 -49.2001,57.9656 -25.4349,0.251 -38.4017,-16.5348 -44.5692,-27.2264 l 17.3487,-7.8918 c 3.2141,8.2263 14.7783,15.5477 27.16,15.903 11.1897,-0.7124 25.8755,-1.7481 31.1217,-24.3057 l -81.791,-0.3136 c 0.1163,-38.236 25.1163,-56.0931 50.7108,-56.2378 24.4055,0.1447 37.3794,17.6447 42.169,24.9999 z"
       style="display:inline;opacity:1;fill:#8ba23a;fill-opacity:1;stroke:#8ba23a;stroke-width:0.55683357;stroke-linecap:butt;stroke-linejoin:miter;stroke-miterlimit:4;stroke-dasharray:none;stroke-opacity:1" />
    <path
       transform="translate(-1511.1751,-892.93347)"
       sodipodi:nodetypes="ccccccccccccc"
       inkscape:connector-curvature="0"
       id="path4306-1-9-7-3"
       d="m -348.77537,1027.3603 c -5.497,-7.932 -14.2842,-15.2534 -26.34332,-15.0343 -11.5996,-0.2191 -18.52405,2.7095 -27.20319,15.0176 -10.70262,13.3347 84.59661,-7.1653 74.46821,32.4753 -4.911,18.0023 -22.4923,34.788 -47.05727,34.537 -25.43499,0.251 -38.40175,-16.5347 -44.56928,-27.2263 l 17.34877,-7.8919 c 3.21409,8.2263 14.77831,15.5477 27.16001,15.903 12.97537,-1.6053 19.26837,-2.8552 27.01447,-14.8771 7.611,-12.621 -86.52325,4.7004 -74.73409,-33.033 3.1998,-12.8023 22.34513,-32.80229 47.76111,-32.94695 24.58398,0.14466 37.37938,17.64465 42.16898,24.99985 z"
       style="display:inline;opacity:1;fill:#8ba23a;fill-opacity:1;stroke:#8ba23a;stroke-width:0.55683357;stroke-linecap:butt;stroke-linejoin:miter;stroke-miterlimit:4;stroke-dasharray:none;stroke-opacity:1" />
    <path
       transform="translate(-1511.1751,-892.93347)"
       sodipodi:nodetypes="ccccccccccccc"
       inkscape:connector-curvature="0"
       id="path4306-1-9-7-4"
       d="m -347.08212,1538.0326 c -5.497,-7.932 -14.2842,-15.2534 -26.3433,-15.0343 -11.5996,-0.2191 -25.4058,5.1023 -31.3103,24.089 38.7469,-0.2031 46.7097,-0.4093 80.7182,-0.025 0.3649,41.9666 -24.6351,58.2166 -49.2001,57.9656 -25.435,0.251 -41.1797,-17.0398 -48.1049,-35.055 l 20.8843,-0.063 c 3.2141,8.2263 14.7784,15.5477 27.1601,15.903 11.1896,-0.7124 25.8755,-1.7481 31.1216,-24.3057 l -81.791,-0.3136 c 0.1163,-38.2359 25.1163,-56.0931 50.7108,-56.2377 24.4055,0.1446 42.4302,19.6649 46.7147,33.081 z"
       style="display:inline;opacity:1;fill:#8ba23a;fill-opacity:1;stroke:#8ba23a;stroke-width:0.55683357;stroke-linecap:butt;stroke-linejoin:miter;stroke-miterlimit:4;stroke-dasharray:none;stroke-opacity:1" />
    <path
       transform="translate(-1511.1751,-892.93347)"
       sodipodi:nodetypes="ccccccccccccc"
       inkscape:connector-curvature="0"
       id="path4306-1-9-7-4-7"
       d="m -346.80006,869.71065 c -5.49701,-7.93199 -14.28422,-15.25345 -26.34332,-15.03431 -10.96825,-0.21914 -18.24908,1.92085 -28.44675,16.48812 l 77.47579,21.74307 c -2.91809,24.16264 -24.25629,44.04968 -48.82129,43.79871 -25.43499,0.25097 -44.46267,-19.56521 -50.63019,-42.12609 l 23.40968,7.00787 c 3.21409,8.22629 14.52577,14.79008 26.90747,15.14535 11.44223,-0.20734 13.94086,0.29695 24.8691,-11.40146 l -75.28593,-22.46018 c 3.14676,-31.92248 28.27304,-46.09307 50.71085,-46.23775 24.40545,0.14468 44.1979,19.41243 47.72483,38.88945 z"
       style="display:inline;opacity:1;fill:#8ba23a;fill-opacity:1;stroke:#8ba23a;stroke-width:0.55683357;stroke-linecap:butt;stroke-linejoin:miter;stroke-miterlimit:4;stroke-dasharray:none;stroke-opacity:1" />
    <path
       transform="translate(-1511.1751,-892.93347)"
       sodipodi:nodetypes="ccccccccccccc"
       inkscape:connector-curvature="0"
       id="path4306-1-9-7-4-7-9"
       d="m -346.88533,1194.3274 c -5.497,-7.932 -14.2843,-15.2535 -26.34336,-15.0343 -10.96825,-0.2192 -18.24908,1.9208 -28.44675,16.4881 l 77.47581,21.7431 c -2.9181,24.1626 -24.2563,44.0496 -48.82131,43.7987 -25.43499,0.2509 -41.17967,-17.0399 -48.10481,-35.0551 l 20.8843,-0.063 c 3.21409,8.2263 14.52577,14.7901 26.90747,15.1454 11.44225,-0.2073 13.94085,0.2969 24.86915,-11.4015 l -75.28598,-22.4601 c 3.14676,-31.9225 28.27304,-46.0931 50.71085,-46.2378 24.40543,0.1447 42.43013,19.665 46.71473,33.0811 z"
       style="display:inline;opacity:1;fill:#8ba23a;fill-opacity:1;stroke:#8ba23a;stroke-width:0.55683357;stroke-linecap:butt;stroke-linejoin:miter;stroke-miterlimit:4;stroke-dasharray:none;stroke-opacity:1" />
    <text
       xml:space="preserve"
       style="font-style:normal;font-weight:normal;font-size:97.44244385px;line-height:125%;font-family:sans-serif;letter-spacing:0px;word-spacing:0px;display:inline;opacity:1;fill:#8ba23a;fill-opacity:1;stroke:none;stroke-width:1px;stroke-linecap:butt;stroke-linejoin:miter;stroke-opacity:1"
       x="-1953.9739"
       y="-230.75824"
       id="text4207-6"
       sodipodi:linespacing="125%"
       transform="matrix(0.99871435,0,0,1.0012873,3.2042382e-5,-4.0570433e-6)"><tspan
         sodipodi:role="line"
         id="tspan4209-0"
         x="-1953.9739"
         y="-230.75824"
         style="font-size:40.601017px;text-align:center;text-anchor:middle;fill:#8ba23a;fill-opacity:1" /><tspan
         sodipodi:role="line"
         x="-1953.9739"
         y="-185.21625"
         style="font-style:normal;font-variant:normal;font-weight:300;font-stretch:normal;font-size:35.98925781px;font-family:'Source Han Sans CN';-inkscape-font-specification:'Source Han Sans CN Light';text-align:end;text-anchor:end;fill:#204534;fill-opacity:1"
         id="tspan4211-7">Next</tspan><tspan
         sodipodi:role="line"
         x="-1953.9739"
         y="-140.22968"
         style="font-style:normal;font-variant:normal;font-weight:300;font-stretch:normal;font-size:35.98925781px;font-family:'Source Han Sans CN';-inkscape-font-specification:'Source Han Sans CN Light';text-align:end;text-anchor:end;fill:#204534;fill-opacity:1"
         id="tspan4237">Generation Analysis</tspan></text>
    <text
       xml:space="preserve"
       style="font-style:normal;font-weight:normal;font-size:97.44244385px;line-height:125%;font-family:sans-serif;letter-spacing:0px;word-spacing:0px;display:inline;opacity:1;fill:#8ba23a;fill-opacity:1;stroke:none;stroke-width:1px;stroke-linecap:butt;stroke-linejoin:miter;stroke-opacity:1"
       x="-1944.6427"
       y="-185.20917"
       id="text4207-6-3"
       sodipodi:linespacing="125%"
       transform="matrix(0.99871435,0,0,1.0012873,3.2042382e-5,-4.0570433e-6)"><tspan
         sodipodi:role="line"
         x="-1944.6427"
         y="-185.20917"
         style="font-style:normal;font-variant:normal;font-weight:300;font-stretch:normal;font-size:35.98925781px;font-family:'Source Han Sans CN';-inkscape-font-specification:'Source Han Sans CN Light';text-align:start;text-anchor:start;fill:#8ba23a;fill-opacity:1"
         id="tspan4237-9">Sequencing</tspan></text>
    <text
       xml:space="preserve"
       style="font-style:normal;font-weight:normal;font-size:97.44244385px;line-height:125%;font-family:sans-serif;letter-spacing:0px;word-spacing:0px;display:inline;opacity:1;fill:#8ba23a;fill-opacity:1;stroke:none;stroke-width:1px;stroke-linecap:butt;stroke-linejoin:miter;stroke-opacity:1"
       x="-1946.3636"
       y="-186.216"
       id="text4207-6-3-1"
       sodipodi:linespacing="125%"
       transform="matrix(0.99871435,0,0,1.0012873,3.2042382e-5,-4.0570433e-6)"><tspan
         sodipodi:role="line"
         x="-1946.3636"
         y="-186.216"
         style="font-style:normal;font-variant:normal;font-weight:300;font-stretch:normal;font-size:40.601017px;font-family:'Source Han Sans CN';-inkscape-font-specification:'Source Han Sans CN Light';text-align:start;text-anchor:start;fill:#8ba23a;fill-opacity:1"
         id="tspan4235-6-1" /><tspan
         sodipodi:role="line"
         x="-1946.3636"
         y="-139.98302"
         style="font-style:normal;font-variant:normal;font-weight:300;font-stretch:normal;font-size:35.98925781px;font-family:'Source Han Sans CN';-inkscape-font-specification:'Source Han Sans CN Light';text-align:start;text-anchor:start;fill:#8ba23a;fill-opacity:1"
         id="tspan4237-9-1">Polymorphism</tspan></text>
    <path
       transform="translate(3.2042382e-5,-4.0570433e-6)"
       sodipodi:nodetypes="ccccccsccc"
       inkscape:connector-curvature="0"
       id="path4298-1"
       d="m -2258.3327,42.995642 c -1.14,-42.98924021 -9.1526,-90.4844 48.4075,-99.23123 44.9236,0.81003 51.1985,43.56836 50.7588,49.4541898 1.172,10.4104 0,49.7770402 0,49.7770402 l -17.7817,0 0,-49.7770402 c 0,0 0,-32.1418798 -31.6875,-32.1418798 -32.1437,0 -32.1437,32.1418798 -32.1437,32.1418798 l 0,49.7770402 z"
       style="display:inline;opacity:1;fill:#204534;fill-opacity:1;stroke:#204534;stroke-width:0.55683357;stroke-linecap:butt;stroke-linejoin:miter;stroke-miterlimit:4;stroke-dasharray:none;stroke-opacity:1" />
    <path
       transform="translate(3.2042382e-5,-4.0570433e-6)"
       sodipodi:nodetypes="csscssccssccsssss"
       inkscape:connector-curvature="0"
       id="path4300-4"
       d="m -2102.22,-56.567828 c -31.9433,0 -49.7053,26.30106 -49.7053,49.7773398 0,23.4758902 21.0157,50.4493302 49.7053,49.7762602 29.5193,-0.69161 31.4257,-18.38324 31.4257,-18.38324 l 0,18.38324 c 0,8.64212 -8.8293,27.32134 -31.4257,27.32134 -26.7873,0 -31.9332,-27.32134 -31.9332,-27.32134 l -17.7721,0 c 0,0 6.4569,44.68592 49.7053,44.68592 31.4598,0 49.6489,-27.8682 49.6489,-44.68592 l 0,-49.7762602 c 0.038,-17.0485198 -18.2171,-49.7675998 -49.6489,-49.7773398 z m -0.5076,17.64834 c 14.9703,0.2198 31.4586,11.62311 31.4254,32.1289998 -0.038,14.72653 -8.8699,31.3536102 -30.9742,31.3930202 -20.2769,0.0644 -31.3412,-16.5592502 -31.482,-31.3930202 -0.1401,-14.9042698 12.9407,-32.3980698 31.0308,-32.1289998 z"
       style="display:inline;opacity:1;fill:#204534;fill-opacity:1;stroke:#204534;stroke-width:0.55683357;stroke-linecap:butt;stroke-linejoin:miter;stroke-miterlimit:4;stroke-dasharray:none;stroke-opacity:1" />
    <path
       transform="translate(3.2042382e-5,-4.0570433e-6)"
       sodipodi:nodetypes="csscccccsssss"
       inkscape:connector-curvature="0"
       id="path4302-3"
       d="m -1995.6437,-56.567828 c -23.4163,0 -48.416,20.15904 -49.7055,49.7773398 -1.0211,23.4539102 26.2892,49.7762602 49.7055,49.7762602 10.669,0 21.9272,-5.4663 31.0305,-13.63167 l 0,13.63167 18.6748,0 0,-49.7762602 c -1.8471,-29.4003898 -24.0626,-49.3716498 -49.7053,-49.7773398 z m 0,17.64834 c 14.919,0.0644 31.4395,12.46481 31.6754,32.1289998 0.1778,14.81445 -9.1909,30.8567802 -31.6754,31.3930202 -19.2491,0.46197 -31.1058,-16.4739702 -31.4258,-31.3930202 -0.4094,-19.1245298 16.5066,-32.1835698 31.4258,-32.1289998 z"
       style="display:inline;opacity:1;fill:#204534;fill-opacity:1;stroke:#204534;stroke-width:0.55683357;stroke-linecap:butt;stroke-linejoin:miter;stroke-miterlimit:4;stroke-dasharray:none;stroke-opacity:1" />
    <path
       transform="translate(3.2042382e-5,-4.0570433e-6)"
       sodipodi:nodetypes="ccccssccsssss"
       inkscape:connector-curvature="0"
       id="path4304-2"
       d="m -1832.084,-6.7904882 0,94.4621802 18.2233,0 0.967,-56.77441 c 9.181,8.39124 19.6692,11.32297 30.5151,11.44235 29.2191,0.32592 49.5743,-25.65537 49.3267,-49.1301202 -0.3216,-30.5873298 -25.5881,-49.4542698 -49.0043,-49.4542698 -34.3827,-1.6071 -50.0411,32.40575 -50.0278,49.4542698 z m 50.1565,-32.1289998 c 14.9191,0.0644 30.6652,12.15178 31.2967,32.1289998 0.5806,18.3711102 -14.297,31.3392002 -31.2967,31.7162802 -14.7389,0.32592 -31.9662,-9.68352 -32.4491,-31.7162802 -0.476,-21.7060998 17.5299,-32.1835698 32.4491,-32.1289998 z"
       style="display:inline;opacity:1;fill:#8ba23a;fill-opacity:1;stroke:#8ba23a;stroke-width:0.55699998;stroke-linecap:butt;stroke-linejoin:miter;stroke-miterlimit:4;stroke-dasharray:none;stroke-opacity:1" />
    <path
       transform="translate(3.2042382e-5,-4.0570433e-6)"
       sodipodi:nodetypes="ccccccsccc"
       inkscape:connector-curvature="0"
       id="path4298-1-9"
       d="m -2258.2513,201.58959 c -1.14,-42.98924 -9.1526,-90.4844 48.4075,-99.23123 44.9236,0.81003 51.1985,43.56836 50.7588,49.45419 1.172,10.4104 0,49.77704 0,49.77704 l -17.7817,0 0,-49.77704 c 0,0 0,-32.14188 -31.6875,-32.14188 -32.1437,0 -32.1437,32.14188 -32.1437,32.14188 l 0,49.77704 z"
       style="display:inline;opacity:1;fill:#204534;fill-opacity:1;stroke:#204534;stroke-width:0.55683357;stroke-linecap:butt;stroke-linejoin:miter;stroke-miterlimit:4;stroke-dasharray:none;stroke-opacity:1" />
    <path
       transform="translate(3.2042382e-5,-4.0570433e-6)"
       sodipodi:nodetypes="csscssccssccsssss"
       inkscape:connector-curvature="0"
       id="path4300-4-8"
       d="m -2102.1386,102.02612 c -31.9433,0 -49.7053,26.30106 -49.7053,49.77734 0,23.47589 21.0157,50.44933 49.7053,49.77626 29.5193,-0.69161 31.4257,-18.38324 31.4257,-18.38324 l 0,18.38324 c 0,8.64212 -8.8293,27.32134 -31.4257,27.32134 -26.7873,0 -31.9332,-27.32134 -31.9332,-27.32134 l -17.7721,0 c 0,0 6.4569,44.68592 49.7053,44.68592 31.4598,0 49.6489,-27.8682 49.6489,-44.68592 l 0,-49.77626 c 0.038,-17.04852 -18.2171,-49.7676 -49.6489,-49.77734 z m -0.5076,17.64834 c 14.9703,0.2198 31.4586,11.62311 31.4254,32.129 -0.038,14.72653 -8.8699,31.35361 -30.9742,31.39302 -20.2769,0.0644 -31.3412,-16.55925 -31.482,-31.39302 -0.1401,-14.90427 12.9407,-32.39807 31.0308,-32.129 z"
       style="display:inline;opacity:1;fill:#204534;fill-opacity:1;stroke:#204534;stroke-width:0.55683357;stroke-linecap:butt;stroke-linejoin:miter;stroke-miterlimit:4;stroke-dasharray:none;stroke-opacity:1" />
    <path
       transform="translate(3.2042382e-5,-4.0570433e-6)"
       sodipodi:nodetypes="csscccccsssss"
       inkscape:connector-curvature="0"
       id="path4302-3-4"
       d="m -1995.5623,102.02612 c -23.4163,0 -48.416,20.15904 -49.7055,49.77734 -1.0211,23.45391 26.2892,49.77626 49.7055,49.77626 10.669,0 21.9272,-5.4663 31.0305,-13.63167 l 0,13.63167 18.6748,0 0,-49.77626 c -1.8471,-29.40039 -24.0626,-49.37165 -49.7053,-49.77734 z m 0,17.64834 c 14.919,0.0644 31.4395,12.46481 31.6754,32.129 0.1778,14.81445 -9.1909,30.85678 -31.6754,31.39302 -19.2491,0.46197 -31.1058,-16.47397 -31.4258,-31.39302 -0.4094,-19.12453 16.5066,-32.18357 31.4258,-32.129 z"
       style="display:inline;opacity:1;fill:#204534;fill-opacity:1;stroke:#204534;stroke-width:0.55683357;stroke-linecap:butt;stroke-linejoin:miter;stroke-miterlimit:4;stroke-dasharray:none;stroke-opacity:1" />
    <path
       transform="translate(3.2042382e-5,-4.0570433e-6)"
       sodipodi:nodetypes="ccccssccsssss"
       inkscape:connector-curvature="0"
       id="path4304-2-1"
       d="m -1832.0026,151.80346 0,94.46218 18.2233,0 0.967,-56.77441 c 9.181,8.39124 19.6692,11.32297 30.5151,11.44235 29.2191,0.32592 49.5741,-25.65537 49.3265,-49.13012 -0.3216,-30.58733 -25.5879,-49.45427 -49.0041,-49.45427 -34.3827,-1.6071 -50.0411,32.40575 -50.0278,49.45427 z m 50.1565,-32.129 c 14.9191,0.0644 30.6652,12.15178 31.2967,32.129 0.5806,18.37111 -14.297,31.3392 -31.2967,31.71628 -14.7389,0.32592 -31.9662,-9.68352 -32.4491,-31.71628 -0.476,-21.7061 17.5299,-32.18357 32.4491,-32.129 z"
       style="display:inline;opacity:1;fill:#8ba23a;fill-opacity:1;stroke:#8ba23a;stroke-width:0.55699998;stroke-linecap:butt;stroke-linejoin:miter;stroke-miterlimit:4;stroke-dasharray:none;stroke-opacity:1" />
    <path
       transform="translate(3.2042382e-5,-4.0570433e-6)"
       sodipodi:nodetypes="ccccccsccc"
       inkscape:connector-curvature="0"
       id="path4298-1-2"
       d="m -2258.2512,368.26476 c -1.14,-42.98924 -9.1526,-90.4844 48.4075,-99.23123 44.9236,0.81003 51.1985,43.56836 50.7588,49.45419 1.172,10.4104 0,49.77704 0,49.77704 l -17.7817,0 0,-49.77704 c 0,0 0,-32.14188 -31.6875,-32.14188 -32.1437,0 -32.1437,32.14188 -32.1437,32.14188 l 0,49.77704 z"
       style="display:inline;opacity:1;fill:#204534;fill-opacity:1;stroke:#204534;stroke-width:0.55683357;stroke-linecap:butt;stroke-linejoin:miter;stroke-miterlimit:4;stroke-dasharray:none;stroke-opacity:1" />
    <path
       transform="translate(3.2042382e-5,-4.0570433e-6)"
       sodipodi:nodetypes="csscssccssccsssss"
       inkscape:connector-curvature="0"
       id="path4300-4-2"
       d="m -2102.1385,268.70129 c -31.9433,0 -49.7053,26.30106 -49.7053,49.77734 0,23.47589 21.0157,50.44933 49.7053,49.77626 29.5193,-0.69161 31.4257,-18.38324 31.4257,-18.38324 l 0,18.38324 c 0,8.64212 -8.8293,27.32134 -31.4257,27.32134 -26.7873,0 -31.9332,-27.32134 -31.9332,-27.32134 l -17.7721,0 c 0,0 6.4569,44.68592 49.7053,44.68592 31.4598,0 49.6489,-27.8682 49.6489,-44.68592 l 0,-49.77626 c 0.038,-17.04852 -18.2171,-49.7676 -49.6489,-49.77734 z m -0.5076,17.64834 c 14.9703,0.2198 31.4586,11.62311 31.4254,32.129 -0.038,14.72653 -8.8699,31.35361 -30.9742,31.39302 -20.2769,0.0644 -31.3412,-16.55925 -31.482,-31.39302 -0.1401,-14.90427 12.9407,-32.39807 31.0308,-32.129 z"
       style="display:inline;opacity:1;fill:#204534;fill-opacity:1;stroke:#204534;stroke-width:0.55683357;stroke-linecap:butt;stroke-linejoin:miter;stroke-miterlimit:4;stroke-dasharray:none;stroke-opacity:1" />
    <path
       transform="translate(3.2042382e-5,-4.0570433e-6)"
       sodipodi:nodetypes="csscccccsssss"
       inkscape:connector-curvature="0"
       id="path4302-3-6"
       d="m -1995.5622,268.70129 c -23.4163,0 -48.416,20.15904 -49.7055,49.77734 -1.0211,23.45391 26.2892,49.77626 49.7055,49.77626 10.669,0 21.9272,-5.4663 31.0305,-13.63167 l 0,13.63167 18.6748,0 0,-49.77626 c -1.8471,-29.40039 -24.0626,-49.37165 -49.7053,-49.77734 z m 0,17.64834 c 14.919,0.0644 31.4395,12.46481 31.6754,32.129 0.1778,14.81445 -9.1909,30.85678 -31.6754,31.39302 -19.2491,0.46197 -31.1058,-16.47397 -31.4258,-31.39302 -0.4094,-19.12453 16.5066,-32.18357 31.4258,-32.129 z"
       style="display:inline;opacity:1;fill:#204534;fill-opacity:1;stroke:#204534;stroke-width:0.55683357;stroke-linecap:butt;stroke-linejoin:miter;stroke-miterlimit:4;stroke-dasharray:none;stroke-opacity:1" />
    <path
       transform="translate(3.2042382e-5,-4.0570433e-6)"
       sodipodi:nodetypes="ccccssccsssss"
       inkscape:connector-curvature="0"
       id="path4304-2-0"
       d="m -1832.0025,318.47863 0,94.46218 18.2233,0 0.967,-56.77441 c 9.181,8.39124 19.6692,11.32297 30.5151,11.44235 29.2191,0.32592 49.574,-25.65537 49.3264,-49.13012 -0.3216,-30.58733 -25.5878,-49.45427 -49.004,-49.45427 -34.3827,-1.6071 -50.0411,32.40575 -50.0278,49.45427 z m 50.1565,-32.129 c 14.9191,0.0644 30.6652,12.15178 31.2967,32.129 0.5806,18.37111 -14.297,31.3392 -31.2967,31.71628 -14.7389,0.32592 -31.9662,-9.68352 -32.4491,-31.71628 -0.476,-21.7061 17.5299,-32.18357 32.4491,-32.129 z"
       style="display:inline;opacity:1;fill:#8ba23a;fill-opacity:1;stroke:#8ba23a;stroke-width:0.55699998;stroke-linecap:butt;stroke-linejoin:miter;stroke-miterlimit:4;stroke-dasharray:none;stroke-opacity:1" />
    <path
       transform="translate(3.2042382e-5,-4.0570433e-6)"
       sodipodi:nodetypes="ccccccsccc"
       inkscape:connector-curvature="0"
       id="path4298-1-26"
       d="m -2258.3324,539.99069 c -1.14,-42.98924 -9.1526,-90.4844 48.4075,-99.23123 44.9236,0.81003 51.1985,43.56836 50.7588,49.45419 1.172,10.4104 0,49.77704 0,49.77704 l -17.7817,0 0,-49.77704 c 0,0 0,-32.14188 -31.6875,-32.14188 -32.1437,0 -32.1437,32.14188 -32.1437,32.14188 l 0,49.77704 z"
       style="display:inline;opacity:1;fill:#204534;fill-opacity:1;stroke:#204534;stroke-width:0.55683357;stroke-linecap:butt;stroke-linejoin:miter;stroke-miterlimit:4;stroke-dasharray:none;stroke-opacity:1" />
    <path
       transform="translate(3.2042382e-5,-4.0570433e-6)"
       sodipodi:nodetypes="csscssccssccsssss"
       inkscape:connector-curvature="0"
       id="path4300-4-3"
       d="m -2102.2197,440.42722 c -31.9433,0 -49.7053,26.30106 -49.7053,49.77734 0,23.47589 21.0157,50.44933 49.7053,49.77626 29.5193,-0.69161 31.4257,-18.38324 31.4257,-18.38324 l 0,18.38324 c 0,8.64212 -8.8293,27.32134 -31.4257,27.32134 -26.7873,0 -31.9332,-27.32134 -31.9332,-27.32134 l -17.7721,0 c 0,0 6.4569,44.68592 49.7053,44.68592 31.4598,0 49.6489,-27.8682 49.6489,-44.68592 l 0,-49.77626 c 0.038,-17.04852 -18.2171,-49.7676 -49.6489,-49.77734 z m -0.5076,17.64834 c 14.9703,0.2198 31.4586,11.62311 31.4254,32.129 -0.038,14.72653 -8.8699,31.35361 -30.9742,31.39302 -20.2769,0.0644 -31.3412,-16.55925 -31.482,-31.39302 -0.1401,-14.90427 12.9407,-32.39807 31.0308,-32.129 z"
       style="display:inline;opacity:1;fill:#204534;fill-opacity:1;stroke:#204534;stroke-width:0.55683357;stroke-linecap:butt;stroke-linejoin:miter;stroke-miterlimit:4;stroke-dasharray:none;stroke-opacity:1" />
    <path
       transform="translate(3.2042382e-5,-4.0570433e-6)"
       sodipodi:nodetypes="csscccccsssss"
       inkscape:connector-curvature="0"
       id="path4302-3-55"
       d="m -1995.6434,440.42722 c -23.4163,0 -48.416,20.15904 -49.7055,49.77734 -1.0211,23.45391 26.2892,49.77626 49.7055,49.77626 10.669,0 21.9272,-5.4663 31.0305,-13.63167 l 0,13.63167 18.6748,0 0,-49.77626 c -1.8471,-29.40039 -24.0626,-49.37165 -49.7053,-49.77734 z m 0,17.64834 c 14.919,0.0644 31.4395,12.46481 31.6754,32.129 0.1778,14.81445 -9.1909,30.85678 -31.6754,31.39302 -19.2491,0.46197 -31.1058,-16.47397 -31.4258,-31.39302 -0.4094,-19.12453 16.5066,-32.18357 31.4258,-32.129 z"
       style="display:inline;opacity:1;fill:#204534;fill-opacity:1;stroke:#204534;stroke-width:0.55683357;stroke-linecap:butt;stroke-linejoin:miter;stroke-miterlimit:4;stroke-dasharray:none;stroke-opacity:1" />
    <path
       transform="translate(3.2042382e-5,-4.0570433e-6)"
       sodipodi:nodetypes="ccccssccsssss"
       inkscape:connector-curvature="0"
       id="path4304-2-3"
       d="m -1832.0837,490.20456 0,94.46218 18.2233,0 0.967,-56.77441 c 9.181,8.39124 19.6692,11.32297 30.5151,11.44235 29.2191,0.32592 49.5739,-25.65537 49.3263,-49.13012 -0.3216,-30.58733 -25.5877,-49.45427 -49.0039,-49.45427 -34.3827,-1.6071 -50.0411,32.40575 -50.0278,49.45427 z m 50.1565,-32.129 c 14.9191,0.0644 30.6652,12.15178 31.2967,32.129 0.5806,18.37111 -14.297,31.3392 -31.2967,31.71628 -14.7389,0.32592 -31.9662,-9.68352 -32.4491,-31.71628 -0.476,-21.7061 17.5299,-32.18357 32.4491,-32.129 z"
       style="display:inline;opacity:1;fill:#8ba23a;fill-opacity:1;stroke:#8ba23a;stroke-width:0.55699998;stroke-linecap:butt;stroke-linejoin:miter;stroke-miterlimit:4;stroke-dasharray:none;stroke-opacity:1" />
    <path
       transform="translate(3.2042382e-5,-4.0570433e-6)"
       sodipodi:nodetypes="ccccccsccc"
       inkscape:connector-curvature="0"
       id="path4298-1-8"
       d="m -2258.3121,712.72678 c -1.14,-42.98924 -9.1526,-90.4844 48.4075,-99.23123 44.9236,0.81003 51.1985,43.56836 50.7588,49.45419 1.172,10.4104 0,49.77704 0,49.77704 l -17.7817,0 0,-49.77704 c 0,0 0,-32.14188 -31.6875,-32.14188 -32.1437,0 -32.1437,32.14188 -32.1437,32.14188 l 0,49.77704 z"
       style="display:inline;opacity:1;fill:#204534;fill-opacity:1;stroke:#204534;stroke-width:0.55683357;stroke-linecap:butt;stroke-linejoin:miter;stroke-miterlimit:4;stroke-dasharray:none;stroke-opacity:1" />
    <path
       transform="translate(3.2042382e-5,-4.0570433e-6)"
       sodipodi:nodetypes="csscssccssccsssss"
       inkscape:connector-curvature="0"
       id="path4300-4-0"
       d="m -2102.1994,631.73474 c -31.9433,0 -49.7053,26.30106 -49.7053,49.77734 0,23.47589 21.0157,50.44933 49.7053,49.77626 29.5193,-0.69161 31.4257,-18.38324 31.4257,-18.38324 l 0,18.38324 c 0,8.64212 -8.8293,27.32134 -31.4257,27.32134 -26.7873,0 -31.9332,-27.32134 -31.9332,-27.32134 l -17.7721,0 c 0,0 6.4569,44.68592 49.7053,44.68592 31.4598,0 49.6489,-27.8682 49.6489,-44.68592 l 0,-49.77626 c 0.038,-17.04852 -18.2171,-49.7676 -49.6489,-49.77734 z m -0.5076,17.64834 c 14.9703,0.2198 31.4586,11.62311 31.4254,32.129 -0.038,14.72653 -8.8699,31.35361 -30.9742,31.39302 -20.2769,0.0644 -31.3412,-16.55925 -31.482,-31.39302 -0.1401,-14.90427 12.9407,-32.39807 31.0308,-32.129 z"
       style="display:inline;opacity:1;fill:#204534;fill-opacity:1;stroke:#204534;stroke-width:0.55683357;stroke-linecap:butt;stroke-linejoin:miter;stroke-miterlimit:4;stroke-dasharray:none;stroke-opacity:1" />
    <path
       transform="translate(3.2042382e-5,-4.0570433e-6)"
       sodipodi:nodetypes="csscccccsssss"
       inkscape:connector-curvature="0"
       id="path4302-3-9"
       d="m -1995.6231,613.16331 c -23.4163,0 -48.416,20.15904 -49.7055,49.77734 -1.0211,23.45391 26.2892,49.77626 49.7055,49.77626 10.669,0 21.9272,-5.4663 31.0305,-13.63167 l 0,13.63167 18.6748,0 0,-49.77626 c -1.8471,-29.40039 -24.0626,-49.37165 -49.7053,-49.77734 z m 0,17.64834 c 14.919,0.0644 31.4395,12.46481 31.6754,32.129 0.1778,14.81445 -9.1909,30.85678 -31.6754,31.39302 -19.2491,0.46197 -31.1058,-16.47397 -31.4258,-31.39302 -0.4094,-19.12453 16.5066,-32.18357 31.4258,-32.129 z"
       style="display:inline;opacity:1;fill:#204534;fill-opacity:1;stroke:#204534;stroke-width:0.55683357;stroke-linecap:butt;stroke-linejoin:miter;stroke-miterlimit:4;stroke-dasharray:none;stroke-opacity:1" />
    <path
       transform="translate(3.2042382e-5,-4.0570433e-6)"
       sodipodi:nodetypes="ccccssccsssss"
       inkscape:connector-curvature="0"
       id="path4304-2-5"
       d="m -1832.0634,681.51208 0,94.46218 18.2233,0 0.967,-56.77441 c 9.181,8.39124 19.6692,11.32297 30.5151,11.44235 29.2191,0.32592 49.5739,-25.65537 49.3263,-49.13012 -0.3216,-30.58733 -25.5877,-49.45427 -49.0039,-49.45427 -34.3827,-1.6071 -50.0411,32.40575 -50.0278,49.45427 z m 50.1565,-32.129 c 14.9191,0.0644 30.6652,12.15178 31.2967,32.129 0.5806,18.37111 -14.297,31.3392 -31.2967,31.71628 -14.7389,0.32592 -31.9662,-9.68352 -32.4491,-31.71628 -0.476,-21.7061 17.5299,-32.18357 32.4491,-32.129 z"
       style="display:inline;opacity:1;fill:#8ba23a;fill-opacity:1;stroke:#8ba23a;stroke-width:0.55699998;stroke-linecap:butt;stroke-linejoin:miter;stroke-miterlimit:4;stroke-dasharray:none;stroke-opacity:1" />
  </g>
</svg>
