<?xml version="1.0" encoding="UTF-8" standalone="no"?>
<!-- Created with Inkscape (http://www.inkscape.org/) -->

<svg
   xmlns:dc="http://purl.org/dc/elements/1.1/"
   xmlns:cc="http://creativecommons.org/ns#"
   xmlns:rdf="http://www.w3.org/1999/02/22-rdf-syntax-ns#"
   xmlns:svg="http://www.w3.org/2000/svg"
   xmlns="http://www.w3.org/2000/svg"
   xmlns:sodipodi="http://sodipodi.sourceforge.net/DTD/sodipodi-0.dtd"
   xmlns:inkscape="http://www.inkscape.org/namespaces/inkscape"
   width="150.80113mm"
   height="43.205265mm"
   viewBox="0 0 534.33472 153.08953"
   id="svg4372"
   version="1.1"
   inkscape:version="0.91 r13725"
   sodipodi:docname="ngasp_white2.svg">
  <defs
     id="defs4374" />
  <sodipodi:namedview
     id="base"
     pagecolor="#ffffff"
     bordercolor="#666666"
     borderopacity="1.0"
     inkscape:pageopacity="0.0"
     inkscape:pageshadow="2"
     inkscape:zoom="0.98994949"
     inkscape:cx="255.61927"
     inkscape:cy="136.93601"
     inkscape:document-units="px"
     inkscape:current-layer="layer1"
     showgrid="false"
     fit-margin-top="0"
     fit-margin-left="0"
     fit-margin-right="0"
     fit-margin-bottom="0"
     inkscape:window-width="1920"
     inkscape:window-height="1163"
     inkscape:window-x="2560"
     inkscape:window-y="115"
     inkscape:window-maximized="1"
     showguides="false"
     inkscape:guide-bbox="true">
    <sodipodi:guide
       position="292.54577,26.402547"
       orientation="1,0"
       id="guide5156" />
    <sodipodi:guide
       position="301.83148,107.47397"
       orientation="1,0"
       id="guide5158" />
    <sodipodi:guide
       position="304.25333,159.88585"
       orientation="1,0"
       id="guide5160" />
    <sodipodi:guide
       position="354.63469,16.570458"
       orientation="0,1"
       id="guide5187" />
    <sodipodi:guide
       position="352.10931,-24.845801"
       orientation="0,1"
       id="guide5189" />
    <sodipodi:guide
       position="510.04577,16.570458"
       orientation="0,1"
       id="guide4167" />
    <sodipodi:guide
       position="351.25142,148.67839"
       orientation="0,1"
       id="guide4188" />
    <sodipodi:guide
       position="323.5985,48.673286"
       orientation="0,1"
       id="guide4190" />
    <sodipodi:guide
       position="292.54577,113.57558"
       orientation="0,1"
       id="guide4192" />
    <sodipodi:guide
       position="16.890932,83.523551"
       orientation="0,1"
       id="guide4194" />
    <sodipodi:guide
       position="337.74063,145.7742"
       orientation="1,0"
       id="guide4198" />
    <sodipodi:guide
       position="417.79523,138.57686"
       orientation="1,0"
       id="guide4200" />
    <sodipodi:guide
       position="312.48682,142.74374"
       orientation="1,0"
       id="guide4202" />
    <sodipodi:guide
       position="355.92338,117.11112"
       orientation="1,0"
       id="guide4204" />
    <sodipodi:guide
       position="377.76793,151.83511"
       orientation="1,0"
       id="guide4206" />
    <sodipodi:guide
       position="338.87705,138.57686"
       orientation="0,1"
       id="guide4208" />
    <sodipodi:guide
       position="413.75462,58.522273"
       orientation="0,1"
       id="guide4210" />
    <sodipodi:guide
       position="399.61248,113.57558"
       orientation="1,0"
       id="guide4212" />
    <sodipodi:guide
       position="383.1975,117.48993"
       orientation="0,1"
       id="guide4216" />
    <sodipodi:guide
       position="393.80411,79.230401"
       orientation="0,1"
       id="guide4218" />
    <sodipodi:guide
       position="401.88533,98.4233"
       orientation="0,1"
       id="guide4220" />
    <sodipodi:guide
       position="393.22324,133.90007"
       orientation="0,1"
       id="guide4222" />
    <sodipodi:guide
       position="389.1161,63.721498"
       orientation="0,1"
       id="guide4224" />
    <sodipodi:guide
       position="366.43753,74.435784"
       orientation="1,0"
       id="guide4226" />
    <sodipodi:guide
       position="388.75895,74.257213"
       orientation="1,0"
       id="guide4228" />
    <sodipodi:guide
       position="431.05348,148.67839"
       orientation="1,0"
       id="guide5703" />
    <sodipodi:guide
       position="530.5535,148.67839"
       orientation="1,0"
       id="guide5705" />
  </sodipodi:namedview>
  <metadata
     id="metadata4377">
    <rdf:RDF>
      <cc:Work
         rdf:about="">
        <dc:format>image/svg+xml</dc:format>
        <dc:type
           rdf:resource="http://purl.org/dc/dcmitype/StillImage" />
        <dc:title></dc:title>
      </cc:Work>
    </rdf:RDF>
  </metadata>
  <g
     inkscape:label="Layer 1"
     inkscape:groupmode="layer"
     id="layer1"
     transform="translate(1514.934,896.65517)">
    <text
       xml:space="preserve"
       style="font-style:normal;font-weight:normal;font-size:97.44244385px;line-height:125%;font-family:sans-serif;letter-spacing:0px;word-spacing:0px;fill:#8ba23a;fill-opacity:1;stroke:none;stroke-width:1px;stroke-linecap:butt;stroke-linejoin:miter;stroke-opacity:1"
       x="-1576.7019"
       y="-419.41391"
       id="text4207-6"
       sodipodi:linespacing="125%"
       transform="scale(0.99871435,1.0012873)"><tspan
         sodipodi:role="line"
         id="tspan4209-0"
         x="-1576.7019"
         y="-419.41391"
         style="font-size:40.601017px;text-align:center;text-anchor:middle;fill:#8ba23a;fill-opacity:1" /><tspan
         sodipodi:role="line"
         x="-1576.7019"
         y="-373.87192"
         style="font-style:normal;font-variant:normal;font-weight:300;font-stretch:normal;font-size:35.98925781px;font-family:'Source Han Sans CN';-inkscape-font-specification:'Source Han Sans CN Light';text-align:end;text-anchor:end;fill:#204534;fill-opacity:1"
         id="tspan4211-7">Next</tspan><tspan
         sodipodi:role="line"
         x="-1576.7019"
         y="-328.88535"
         style="font-style:normal;font-variant:normal;font-weight:300;font-stretch:normal;font-size:35.98925781px;font-family:'Source Han Sans CN';-inkscape-font-specification:'Source Han Sans CN Light';text-align:end;text-anchor:end;fill:#204534;fill-opacity:1"
         id="tspan4237">Generation Analysis</tspan></text>
    <text
       xml:space="preserve"
       style="font-style:normal;font-weight:normal;font-size:97.44244385px;line-height:125%;font-family:sans-serif;letter-spacing:0px;word-spacing:0px;fill:#8ba23a;fill-opacity:1;stroke:none;stroke-width:1px;stroke-linecap:butt;stroke-linejoin:miter;stroke-opacity:1"
       x="-1567.3707"
       y="-373.86484"
       id="text4207-6-3"
       sodipodi:linespacing="125%"
       transform="scale(0.99871435,1.0012873)"><tspan
         sodipodi:role="line"
         x="-1567.3707"
         y="-373.86484"
         style="font-style:normal;font-variant:normal;font-weight:300;font-stretch:normal;font-size:35.98925781px;font-family:'Source Han Sans CN';-inkscape-font-specification:'Source Han Sans CN Light';text-align:start;text-anchor:start;fill:#8ba23a;fill-opacity:1"
         id="tspan4237-9">Sequencing</tspan></text>
    <path
       sodipodi:nodetypes="ccccccsccc"
       inkscape:connector-curvature="0"
       id="path4298"
       d="m -1509.8821,-792.2417 c -1.14,-42.98924 -9.1526,-90.4844 48.4075,-99.23123 44.9236,0.81003 51.1985,43.56836 50.7588,49.45419 1.172,10.4104 0,49.77704 0,49.77704 l -17.7817,0 0,-49.77704 c 0,0 0,-32.14188 -31.6875,-32.14188 -32.1437,0 -32.1437,32.14188 -32.1437,32.14188 l 0,49.77704 z"
       style="display:inline;opacity:1;fill:#204534;fill-opacity:1;stroke:#ffffff;stroke-width:8;stroke-linecap:butt;stroke-linejoin:miter;stroke-miterlimit:4;stroke-dasharray:none;stroke-opacity:1" />
    <path
       sodipodi:nodetypes="csscssccssccsssss"
       inkscape:connector-curvature="0"
       id="path4300"
       d="m -1353.7694,-891.80517 c -31.9433,0 -49.7053,26.30106 -49.7053,49.77734 0,23.47589 21.0157,50.44933 49.7053,49.77626 29.5193,-0.69161 31.4257,-18.38324 31.4257,-18.38324 l 0,18.38324 c 0,8.64212 -8.8293,27.32134 -31.4257,27.32134 -26.7873,0 -31.9332,-27.32134 -31.9332,-27.32134 l -17.7721,0 c 0,0 6.4569,44.68592 49.7053,44.68592 31.4598,0 49.6489,-27.8682 49.6489,-44.68592 l 0,-49.77626 c 0.038,-17.04852 -18.2171,-49.7676 -49.6489,-49.77734 z m -0.5076,17.64834 c 14.9703,0.2198 31.4586,11.62311 31.4254,32.129 -0.038,14.72653 -8.8699,31.35361 -30.9742,31.39302 -20.2769,0.0644 -31.3412,-16.55925 -31.482,-31.39302 -0.1401,-14.90427 12.9407,-32.39807 31.0308,-32.129 z"
       style="display:inline;opacity:1;fill:#204534;fill-opacity:1;stroke:#ffffff;stroke-width:8;stroke-linecap:butt;stroke-linejoin:miter;stroke-miterlimit:4;stroke-dasharray:none;stroke-opacity:1" />
    <path
       sodipodi:nodetypes="csscccccsssss"
       inkscape:connector-curvature="0"
       id="path4302"
       d="m -1247.1931,-891.80517 c -23.4163,0 -48.416,20.15904 -49.7055,49.77734 -1.0211,23.45391 26.2892,49.77626 49.7055,49.77626 10.669,0 21.9272,-5.4663 31.0305,-13.63167 l 0,13.63167 18.6748,0 0,-49.77626 c -1.8471,-29.40039 -24.0626,-49.37165 -49.7053,-49.77734 z m 0,17.64834 c 14.919,0.0644 31.4395,12.46481 31.6754,32.129 0.1778,14.81445 -9.1909,30.85678 -31.6754,31.39302 -19.2491,0.46197 -31.1058,-16.47397 -31.4258,-31.39302 -0.4094,-19.12453 16.5066,-32.18357 31.4258,-32.129 z"
       style="display:inline;opacity:1;fill:#204534;fill-opacity:1;stroke:#ffffff;stroke-width:8;stroke-linecap:butt;stroke-linejoin:miter;stroke-miterlimit:4;stroke-dasharray:none;stroke-opacity:1" />
    <path
       sodipodi:nodetypes="ccccssccsssss"
       inkscape:connector-curvature="0"
       id="path4304"
       d="m -1083.6334,-842.02783 0,94.46218 18.2233,0 0.967,-56.77441 c 9.181,8.39124 19.6692,11.32297 30.5151,11.44235 29.2191,0.32592 49.574,-25.65537 49.3264,-49.13012 -0.3216,-30.58733 -25.5878,-49.45427 -49.004,-49.45427 -34.3827,-1.6071 -50.0411,32.40575 -50.0278,49.45427 z m 50.1565,-32.129 c 14.9191,0.0644 30.6652,12.15178 31.2967,32.129 0.5806,18.37111 -14.297,31.3392 -31.2967,31.71628 -14.7389,0.32592 -31.9662,-9.68352 -32.4491,-31.71628 -0.476,-21.7061 17.5299,-32.18357 32.4491,-32.129 z"
       style="display:inline;opacity:1;fill:#8ba23a;fill-opacity:1;stroke:#ffffff;stroke-width:8;stroke-linecap:butt;stroke-linejoin:miter;stroke-miterlimit:4;stroke-dasharray:none;stroke-opacity:1" />
    <path
       sodipodi:nodetypes="cccccccsccccccc"
       inkscape:connector-curvature="0"
       id="path4306-1"
       d="m -1108.5595,-857.78828 c -0.098,-12.50362 -16.427,-20.33045 -28.4861,-20.57002 -12.8496,0.23957 -24.7733,4.09375 -24.8461,16.62472 0.1455,15.09162 69.2752,3.9042 69.2182,41.36818 0.089,17.62447 -22.315,27.47341 -44.7001,27.28702 -21.859,0.31266 -48.5446,-9.66259 -48.6407,-34.40491 l 20.2059,-0.21327 c 0.031,12.4778 15.9132,19.7564 28.3743,19.83154 12.8461,0.0775 24.7745,-3.32294 24.8716,-15.76994 -0.1942,-15.007 -69.4518,-3.84833 -69.1626,-41.60441 -0.1931,-17.55615 22.2107,-27.65768 44.3325,-27.41127 22.4041,-0.24641 48.8079,9.85512 48.7761,34.82128 l -19.943,0.0411 0,-10e-6 z"
       style="display:inline;opacity:1;fill:#8ba23a;fill-opacity:1;stroke:#ffffff;stroke-width:8;stroke-linecap:butt;stroke-linejoin:miter;stroke-miterlimit:4;stroke-dasharray:none;stroke-opacity:1" />
    <text
       xml:space="preserve"
       style="font-style:normal;font-weight:normal;font-size:97.44244385px;line-height:125%;font-family:sans-serif;letter-spacing:0px;word-spacing:0px;fill:#8ba23a;fill-opacity:1;stroke:none;stroke-width:1px;stroke-linecap:butt;stroke-linejoin:miter;stroke-opacity:1"
       x="-1569.0917"
       y="-374.87167"
       id="text4207-6-3-1"
       sodipodi:linespacing="125%"
       transform="scale(0.99871435,1.0012873)"><tspan
         sodipodi:role="line"
         x="-1569.0917"
         y="-374.87167"
         style="font-style:normal;font-variant:normal;font-weight:300;font-stretch:normal;font-size:40.601017px;font-family:'Source Han Sans CN';-inkscape-font-specification:'Source Han Sans CN Light';text-align:start;text-anchor:start;fill:#8ba23a;fill-opacity:1"
         id="tspan4235-6-1" /><tspan
         sodipodi:role="line"
         x="-1569.0917"
         y="-328.63867"
         style="font-style:normal;font-variant:normal;font-weight:300;font-stretch:normal;font-size:35.98925781px;font-family:'Source Han Sans CN';-inkscape-font-specification:'Source Han Sans CN Light';text-align:start;text-anchor:start;fill:#8ba23a;fill-opacity:1"
         id="tspan4237-9-1">Polymorphism</tspan></text>
  </g>
</svg>
