<?xml version="1.0" encoding="UTF-8" standalone="no"?>
<!-- Created with Inkscape (http://www.inkscape.org/) -->

<svg
   xmlns:dc="http://purl.org/dc/elements/1.1/"
   xmlns:cc="http://creativecommons.org/ns#"
   xmlns:rdf="http://www.w3.org/1999/02/22-rdf-syntax-ns#"
   xmlns:svg="http://www.w3.org/2000/svg"
   xmlns="http://www.w3.org/2000/svg"
   xmlns:sodipodi="http://sodipodi.sourceforge.net/DTD/sodipodi-0.dtd"
   xmlns:inkscape="http://www.inkscape.org/namespaces/inkscape"
   width="24mm"
   height="24mm"
   viewBox="0 0 85.039372 85.039372"
   id="svg2"
   version="1.1"
   inkscape:version="0.91 r13725"
   sodipodi:docname="fx_icon.svg"
   inkscape:export-filename="/home/jjene/NetBeansProjects/ngaSP/webapp/public/images/fx_icon.png"
   inkscape:export-xdpi="34.909096"
   inkscape:export-ydpi="34.909096">
  <defs
     id="defs4">
    <filter
       inkscape:collect="always"
       style="color-interpolation-filters:sRGB"
       id="filter4553"
       x="-0.11675353"
       width="1.2335072"
       y="-0.12343217"
       height="1.2468643">
      <feGaussianBlur
         inkscape:collect="always"
         stdDeviation="2.0231989"
         id="feGaussianBlur4555" />
    </filter>
  </defs>
  <sodipodi:namedview
     id="base"
     pagecolor="#ffffff"
     bordercolor="#666666"
     borderopacity="1.0"
     inkscape:pageopacity="0"
     inkscape:pageshadow="2"
     inkscape:zoom="2.8"
     inkscape:cx="-129.81784"
     inkscape:cy="62.244706"
     inkscape:document-units="px"
     inkscape:current-layer="layer4"
     showgrid="false"
     inkscape:window-width="2560"
     inkscape:window-height="1376"
     inkscape:window-x="0"
     inkscape:window-y="27"
     inkscape:window-maximized="1" />
  <metadata
     id="metadata7">
    <rdf:RDF>
      <cc:Work
         rdf:about="">
        <dc:format>image/svg+xml</dc:format>
        <dc:type
           rdf:resource="http://purl.org/dc/dcmitype/StillImage" />
        <dc:title />
      </cc:Work>
    </rdf:RDF>
  </metadata>
  <g
     inkscape:label="background"
     inkscape:groupmode="layer"
     id="layer1"
     transform="translate(0,-967.32284)"
     style="display:none"
     sodipodi:insensitive="true">
    <path
       style="display:inline;opacity:1;fill:#333333;fill-opacity:1;stroke:none;stroke-width:1.00000012;stroke-linecap:round;stroke-linejoin:round;stroke-miterlimit:4;stroke-dasharray:none;stroke-dashoffset:0;stroke-opacity:1"
       d="m 78.106213,1009.5051 c 2e-5,10.1283 0.18045,17.8692 -0.38547,36.2922 -15.56592,0.566 -27.949635,0.028 -38.077895,0.028 -20.25652,0 -36.6776694,-16.0641 -36.6776394,-36.3206 2e-5,-20.25648 16.4211594,-36.67758 36.6776394,-36.67758 20.25649,0 38.463335,16.4211 38.463365,36.67758 z"
       id="path4143-2-8"
       inkscape:connector-curvature="0"
       sodipodi:nodetypes="scsssss"
       inkscape:export-filename="/home/jjene/NetBeansProjects/ngaSP/webapp/public/images/path4143-2-8.png"
       inkscape:export-xdpi="34.909096"
       inkscape:export-ydpi="34.909096" />
  </g>
  <g
     inkscape:groupmode="layer"
     id="layer5"
     inkscape:label="title_shadow"
     style="display:none;opacity:1"
     transform="translate(0,-28.34646)"
     sodipodi:insensitive="true">
    <path
       style="display:inline;fill:#ffffff;filter:url(#filter4553)"
       d="M 34.025347,76.046889 C 32.95231,75.7469 31.999942,74.940924 31.718991,74.095062 c -0.224372,-0.675518 -0.152154,-1.567239 0.165842,-2.047761 0.389344,-0.588335 0.87586,-0.859708 1.616319,-0.901544 1.060113,-0.05988 1.873688,0.427692 2.020642,1.211023 0.09059,0.482887 -0.0113,1.228379 -0.225184,1.647629 -0.414101,0.811704 -0.136007,1.150962 0.883654,1.078007 1.830312,-0.130954 2.885246,-1.668787 3.948601,-5.756087 0.278421,-1.07019 3.824392,-18.535769 3.824392,-18.836945 0,-0.09171 -0.458468,-0.116328 -2.16609,-0.116328 -1.191351,0 -2.165305,-0.03047 -2.164348,-0.06768 8.94e-4,-0.03721 0.05436,-0.270763 0.11867,-0.518963 l 0.116929,-0.451263 2.222341,-0.02413 c 2.018443,-0.02194 2.226445,-0.03843 2.267081,-0.180508 1.171275,-4.093841 2.626984,-7.231202 4.293404,-9.253207 1.693289,-2.054595 3.672726,-3.063708 6.007075,-3.0624 1.202996,6.59e-4 2.154401,0.266368 3.017389,0.842645 0.985445,0.658057 1.40082,1.421839 1.393297,2.561979 -0.0092,1.38803 -0.608132,2.118068 -1.858365,2.265012 -1.496654,0.175902 -2.416941,-0.597118 -2.416941,-2.030186 0,-0.576456 0.137078,-0.91127 0.624569,-1.525542 0.416297,-0.52456 0.43762,-0.721839 0.09666,-0.894345 -0.325291,-0.164575 -1.619615,-0.146318 -2.139572,0.03015 -1.197762,0.406591 -2.176238,1.637603 -2.824758,3.553802 -0.192379,0.568428 -1.803898,7.316719 -1.803898,7.553892 0,0.09318 0.414633,0.117677 1.991663,0.117677 1.854116,0 1.988498,0.01089 1.945828,0.157945 -0.02521,0.08687 -0.09043,0.330548 -0.144942,0.541518 l -0.09911,0.383581 -1.980383,0 c -1.979301,0 -1.980409,8.9e-5 -2.028515,0.203072 -0.02647,0.111689 -0.43433,2.172856 -0.906348,4.580375 -0.472018,2.407511 -1.01886,5.029957 -1.215205,5.827653 -1.495403,6.07539 -3.752138,11.00782 -5.997366,13.108118 -0.991388,0.92739 -2.090588,1.559845 -3.253482,1.871965 -0.788536,0.211645 -2.404136,0.255813 -3.023499,0.08265 z M 65.723975,66.42697 c -0.88873,-0.146099 -1.55528,-0.608071 -2.10542,-1.459247 -0.45795,-0.708539 -0.748148,-1.62414 -1.167666,-3.684106 -0.19384,-0.951814 -0.365852,-1.743985 -0.382253,-1.760382 -0.01641,-0.01641 -0.859643,1.096158 -1.873876,2.472351 -2.027688,2.751335 -2.914398,3.731612 -3.720282,4.112853 -1.326026,0.627311 -2.634421,0.307578 -3.17424,-0.775701 -0.53276,-1.06911 -0.133918,-2.30762 0.896811,-2.784836 0.719552,-0.33314 1.416174,-0.140492 2.11719,0.585492 0.234648,0.243007 0.483753,0.416699 0.597606,0.416699 0.10738,0 0.362181,-0.152298 0.566222,-0.338446 0.655678,-0.598175 4.079128,-4.572527 4.137904,-4.803777 0.0687,-0.270268 -0.03226,-0.878388 -0.567886,-3.421012 C 60.587562,52.800783 60.138807,51.31066 59.784674,50.7916 59.5686,50.474897 59.518527,50.447581 59.237581,50.493171 c -0.717675,0.116466 -1.696401,1.14035 -3.021449,3.16086 -0.385852,0.588367 -0.714669,1.109125 -0.730706,1.157234 -0.03601,0.108041 -0.862713,-0.205046 -0.875765,-0.331669 -0.01411,-0.136852 0.829501,-1.523509 1.476554,-2.427044 1.947244,-2.719118 3.709976,-3.755816 5.915277,-3.478911 1.730753,0.217324 2.438593,1.183292 3.071133,4.191139 0.10439,0.496391 0.20837,0.957535 0.23106,1.024762 0.0236,0.06988 0.74951,-0.760897 1.69548,-1.940452 0.90982,-1.134476 1.83956,-2.232413 2.06608,-2.439849 0.77967,-0.71399 1.62584,-0.991798 2.55852,-0.840004 0.96411,0.156914 1.44292,0.672496 1.54524,1.66388 0.0675,0.653832 -0.25343,1.368456 -0.78863,1.756157 -0.72419,0.524593 -1.4546,0.485259 -2.40343,-0.129426 -0.65979,-0.427432 -0.8905,-0.477516 -1.27609,-0.277028 -0.61528,0.319913 -2.44342,2.513341 -2.87694,3.451798 l -0.2147,0.464759 0.63885,2.964881 c 0.80913,3.755111 0.94386,4.281281 1.27364,4.97439 0.40045,0.841596 0.85142,1.044904 1.53439,0.691728 0.69175,-0.357719 1.95366,-1.989317 2.71371,-3.508716 0.19997,-0.399766 0.37599,-0.740576 0.39114,-0.757363 0.0151,-0.01682 0.21319,0.07825 0.44009,0.211247 l 0.41254,0.241764 -0.54659,1.072115 c -1.2394,2.430994 -2.40544,3.809566 -3.8332,4.531861 -0.8993,0.45496 -2.02661,0.650866 -2.90981,0.505686 z"
       id="path4352-6"
       inkscape:connector-curvature="0"
       transform="matrix(1.0810249,0,0,1.0810249,-17.941839,9.1052555)" />
  </g>
  <g
     inkscape:groupmode="layer"
     id="layer4"
     inkscape:label="title"
     style="display:inline"
     transform="translate(0,-28.34646)">
    <path
       style="fill:#e6e6e6;stroke-width:1.00000012;stroke-miterlimit:4;stroke-dasharray:none;stroke:#e6e6e6"
       d="m 19.619097,94.563252 c -1.349542,-0.377282 -2.547321,-1.390948 -2.900671,-2.454779 -0.282189,-0.849588 -0.191362,-1.971093 0.208578,-2.575437 0.489671,-0.73994 1.101558,-1.081242 2.032821,-1.133859 1.333288,-0.07529 2.356508,0.537902 2.541332,1.523087 0.113933,0.607318 -0.01432,1.544914 -0.283212,2.072197 -0.520808,1.020868 -0.171055,1.447555 1.111361,1.355799 2.301955,-0.1647 3.62873,-2.098813 4.966096,-7.239351 0.350165,-1.345962 4.80988,-23.312163 4.80988,-23.690948 0,-0.115342 -0.576607,-0.146302 -2.724258,-0.146302 -1.498345,0 -2.723272,-0.03833 -2.722069,-0.0851 0.0011,-0.04679 0.06837,-0.340535 0.149247,-0.652692 l 0.14705,-0.567548 2.795002,-0.03034 c 2.538567,-0.02759 2.800169,-0.04835 2.851275,-0.227025 1.473096,-5.148763 3.30392,-9.094576 5.399751,-11.63762 2.129625,-2.584033 4.619134,-3.853181 7.55501,-3.851535 1.51299,8.28e-4 2.709558,0.335007 3.794926,1.05978 1.239378,0.82763 1.76179,1.788227 1.752329,3.222164 -0.01163,1.745704 -0.764839,2.663866 -2.337238,2.848673 -1.882319,0.22123 -3.03975,-0.750986 -3.03975,-2.553336 0,-0.725001 0.172399,-1.14609 0.78551,-1.918651 0.523571,-0.65973 0.550392,-0.907846 0.121555,-1.124805 -0.409114,-0.206982 -2.036968,-0.18402 -2.69091,0.03794 -1.506407,0.511361 -2.73702,2.059586 -3.552655,4.469561 -0.241953,0.714906 -2.268736,9.202131 -2.268736,9.500421 0,0.117193 0.521477,0.147993 2.504887,0.147993 2.33189,0 2.500903,0.01367 2.447236,0.198645 -0.03169,0.109268 -0.113725,0.415726 -0.182291,0.68106 l -0.124649,0.482426 -2.490696,0 c -2.489339,0 -2.490733,1.11e-4 -2.551234,0.255399 -0.03329,0.140474 -0.546251,2.732769 -1.139902,5.760671 -0.59365,3.02789 -1.281404,6.326102 -1.528346,7.329353 -1.880745,7.640926 -4.719007,13.844371 -7.542798,16.485886 -1.246853,1.166362 -2.629302,1.96179 -4.091855,2.354339 -0.991731,0.266187 -3.023647,0.321736 -3.802609,0.103932 z M 59.485999,82.464428 c -1.117753,-0.183746 -1.956055,-0.764762 -2.647962,-1.835274 -0.57596,-0.891118 -0.940933,-2.042656 -1.468557,-4.633446 -0.243788,-1.197081 -0.460125,-2.193383 -0.480752,-2.214005 -0.02064,-0.02064 -1.081161,1.378622 -2.356747,3.109439 -2.550195,3.460313 -3.665396,4.693193 -4.678943,5.172674 -1.667723,0.788961 -3.313274,0.386839 -3.992194,-0.975589 -0.670044,-1.344604 -0.168422,-2.902258 1.127905,-3.502447 0.90497,-0.418986 1.781099,-0.176696 2.66276,0.736366 0.295113,0.305626 0.608406,0.524075 0.7516,0.524075 0.135052,0 0.455508,-0.191542 0.712127,-0.425657 0.824637,-0.752316 5.130259,-5.7508 5.20418,-6.04164 0.08641,-0.339912 -0.04057,-1.104735 -0.714223,-4.302558 -0.57919,-2.749392 -1.143584,-4.623498 -1.588971,-5.276313 -0.271753,-0.398311 -0.33473,-0.432666 -0.68807,-0.375328 -0.902612,0.146462 -2.133539,1.434202 -3.800031,3.975366 -0.485281,0.73998 -0.898829,1.39493 -0.918999,1.455436 -0.04528,0.135883 -1.085021,-0.257883 -1.101438,-0.417136 -0.01774,-0.172115 1.043251,-1.916093 1.857041,-3.052457 2.449019,-3.419792 4.665982,-4.723632 7.439554,-4.375373 2.176749,0.273324 3.06698,1.488207 3.862522,5.271131 0.131294,0.624305 0.262064,1.204279 0.290599,1.288829 0.02968,0.08788 0.942647,-0.956971 2.132379,-2.440479 1.144267,-1.426813 2.313583,-2.807671 2.59848,-3.068558 0.980577,-0.897978 2.044792,-1.247371 3.217819,-1.056464 1.212538,0.197349 1.814735,0.845789 1.943422,2.092638 0.08489,0.822315 -0.318742,1.721087 -0.99185,2.208694 -0.910796,0.659772 -1.829428,0.610302 -3.02276,-0.162775 -0.829804,-0.537574 -1.119972,-0.600565 -1.604922,-0.348415 -0.773825,0.402352 -3.073048,3.160992 -3.618285,4.341278 l -0.270024,0.58452 0.80348,3.728886 c 1.017631,4.722747 1.18707,5.384504 1.601839,6.256218 0.50363,1.058462 1.070816,1.31416 1.929774,0.869975 0.870001,-0.449898 2.45709,-2.501937 3.412992,-4.41286 0.251503,-0.50278 0.472871,-0.931411 0.491928,-0.952523 0.01906,-0.02115 0.268132,0.09842 0.553498,0.265682 l 0.518845,0.304061 -0.687442,1.348384 c -1.558767,3.057426 -3.025279,4.791234 -4.820951,5.699652 -1.131044,0.572198 -2.548841,0.818585 -3.659623,0.635997 z"
       id="path4352"
       inkscape:connector-curvature="0" />
    <flowRoot
       xml:space="preserve"
       id="flowRoot4344"
       style="font-style:normal;font-weight:normal;font-size:15px;line-height:125%;font-family:sans-serif;letter-spacing:0px;word-spacing:0px;fill:#000000;fill-opacity:1;stroke:none;stroke-width:1px;stroke-linecap:butt;stroke-linejoin:miter;stroke-opacity:1"><flowRegion
         id="flowRegion4346"><rect
           id="rect4348"
           width="179.80716"
           height="44.446712"
           x="22.728432"
           y="-44.197971" /></flowRegion><flowPara
         id="flowPara4350" /></flowRoot>  </g>
</svg>
