<?xml version="1.0" encoding="UTF-8" standalone="no"?>
<!-- Created with Inkscape (http://www.inkscape.org/) -->

<svg
   xmlns:dc="http://purl.org/dc/elements/1.1/"
   xmlns:cc="http://creativecommons.org/ns#"
   xmlns:rdf="http://www.w3.org/1999/02/22-rdf-syntax-ns#"
   xmlns:svg="http://www.w3.org/2000/svg"
   xmlns="http://www.w3.org/2000/svg"
   xmlns:sodipodi="http://sodipodi.sourceforge.net/DTD/sodipodi-0.dtd"
   xmlns:inkscape="http://www.inkscape.org/namespaces/inkscape"
   width="82"
   height="23"
   id="svg2"
   version="1.1"
   inkscape:version="0.91 r13725"
   sodipodi:docname="ngasp_white.svg">
  <defs
     id="defs4">
    <filter
       inkscape:collect="always"
       style="color-interpolation-filters:sRGB"
       id="filter4279"
       x="-0.061128099"
       width="1.1222562"
       y="-0.059508715"
       height="1.1190174">
      <feGaussianBlur
         inkscape:collect="always"
         stdDeviation="0.21247834"
         id="feGaussianBlur4281" />
    </filter>
  </defs>
  <sodipodi:namedview
     id="base"
     pagecolor="#ffffff"
     bordercolor="#666666"
     borderopacity="1.0"
     inkscape:pageopacity="0.0"
     inkscape:pageshadow="2"
     inkscape:zoom="15.839192"
     inkscape:cx="40.780759"
     inkscape:cy="30.589603"
     inkscape:document-units="px"
     inkscape:current-layer="g4296"
     showgrid="false"
     showguides="false"
     inkscape:guide-bbox="true"
     inkscape:window-width="2560"
     inkscape:window-height="1376"
     inkscape:window-x="0"
     inkscape:window-y="27"
     inkscape:window-maximized="1">
    <sodipodi:guide
       orientation="0,1"
       position="259.28571,612.85714"
       id="guide3131" />
    <sodipodi:guide
       orientation="0,1"
       position="234.28571,640.35714"
       id="guide3995" />
    <sodipodi:guide
       orientation="1,0"
       position="273.11999,674.7819"
       id="guide3997" />
    <sodipodi:guide
       orientation="1,0"
       position="328.04704,675.66578"
       id="guide3999" />
    <sodipodi:guide
       orientation="1,0"
       position="383.10035,667.85714"
       id="guide4001" />
    <sodipodi:guide
       orientation="1,0"
       position="438.15367,676.4234"
       id="guide4003" />
    <sodipodi:guide
       orientation="1,0"
       position="493.20698,675.66578"
       id="guide4005" />
    <sodipodi:guide
       orientation="0,1"
       position="406.42857,667.85714"
       id="guide4079" />
    <sodipodi:guide
       orientation="1,0"
       position="245.59334,676.17086"
       id="guide4081" />
    <sodipodi:guide
       orientation="1,0"
       position="355.5737,657.73558"
       id="guide4089" />
    <sodipodi:guide
       orientation="1,0"
       position="410.62701,667.85714"
       id="guide4091" />
    <sodipodi:guide
       orientation="1,0"
       position="465.68032,676.04459"
       id="guide4093" />
    <sodipodi:guide
       orientation="1,0"
       position="300.52038,661.14484"
       id="guide4095" />
    <sodipodi:guide
       orientation="1,0"
       position="520.73364,679.95893"
       id="guide4097" />
    <sodipodi:guide
       orientation="1,0"
       position="255.31606,675.79205"
       id="guide4099" />
    <sodipodi:guide
       orientation="1,0"
       position="290.6714,677.55982"
       id="guide4101" />
    <sodipodi:guide
       orientation="1,0"
       position="310.36937,675.79205"
       id="guide4103" />
    <sodipodi:guide
       orientation="1,0"
       position="345.47217,673.77175"
       id="guide4105" />
    <sodipodi:guide
       orientation="1,0"
       position="365.67522,667.85714"
       id="guide4107" />
    <sodipodi:guide
       orientation="1,0"
       position="400.27295,667.85714"
       id="guide4109" />
    <sodipodi:guide
       orientation="1,0"
       position="420.72854,655.84154"
       id="guide4111" />
    <sodipodi:guide
       orientation="1,0"
       position="455.5788,652.05347"
       id="guide4113" />
    <sodipodi:guide
       orientation="1,0"
       position="475.78185,656.09408"
       id="guide4115" />
    <sodipodi:guide
       orientation="1,0"
       position="510.63211,656.85169"
       id="guide4117" />
    <sodipodi:guide
       orientation="0,1"
       position="503.30851,658.11438"
       id="guide4119" />
    <sodipodi:guide
       orientation="0,1"
       position="493.20698,623.01158"
       id="guide4121" />
    <sodipodi:guide
       orientation="0,1"
       position="266.60714,661.25"
       id="guide4126" />
    <sodipodi:guide
       orientation="0,1"
       position="345.47217,588.16132"
       id="guide4150" />
    <sodipodi:guide
       orientation="0,1"
       position="339.91633,597.75777"
       id="guide4152" />
    <sodipodi:guide
       orientation="0,1"
       position="339.91633,618.6553"
       id="guide4177" />
    <sodipodi:guide
       orientation="0,1"
       position="465.68032,649.78063"
       id="guide4264" />
    <sodipodi:guide
       orientation="0,1"
       position="455.5788,631.0928"
       id="guide4266" />
    <sodipodi:guide
       orientation="0,1"
       position="450.17857,644.46429"
       id="guide4288" />
    <sodipodi:guide
       orientation="0,1"
       position="465.68032,636.60714"
       id="guide4290" />
    <sodipodi:guide
       position="49.508929,22.276786"
       orientation="1,0"
       id="guide4217" />
    <sodipodi:guide
       position="45.614701,14.931317"
       orientation="1,0"
       id="guide4241" />
    <sodipodi:guide
       position="62.534756,45.014923"
       orientation="0,1"
       id="guide4258" />
    <sodipodi:guide
       position="63.513341,41.763494"
       orientation="0,1"
       id="guide4260" />
    <sodipodi:guide
       position="63.355505,32.545852"
       orientation="0,1"
       id="guide4262" />
    <sodipodi:guide
       position="63.102966,29.168155"
       orientation="0,1"
       id="guide4265" />
    <sodipodi:guide
       position="65.379464,24.508929"
       orientation="1,0"
       id="guide4267" />
    <sodipodi:guide
       position="67.869624,39.806323"
       orientation="1,0"
       id="guide4269" />
    <sodipodi:guide
       position="61.964286,16.674107"
       orientation="1,0"
       id="guide4271" />
    <sodipodi:guide
       position="63.702744,37.123106"
       orientation="0,1"
       id="guide4273" />
    <sodipodi:guide
       position="52.96875,18.080357"
       orientation="1,0"
       id="guide4275" />
    <sodipodi:guide
       position="63.392857,22.901786"
       orientation="0,1"
       id="guide4346" />
    <sodipodi:guide
       position="60.513393,7.0535714"
       orientation="0,1"
       id="guide4189" />
    <sodipodi:guide
       position="61.964286,19.464286"
       orientation="0,1"
       id="guide4191" />
    <sodipodi:guide
       position="60.558036,15.959821"
       orientation="0,1"
       id="guide4203" />
    <sodipodi:guide
       position="57.678571,20.357143"
       orientation="1,0"
       id="guide4205" />
    <sodipodi:guide
       position="64.196429,15"
       orientation="0,1"
       id="guide4207" />
    <sodipodi:guide
       position="59.375,14.017857"
       orientation="0,1"
       id="guide4209" />
  </sodipodi:namedview>
  <metadata
     id="metadata7">
    <rdf:RDF>
      <cc:Work
         rdf:about="">
        <dc:format>image/svg+xml</dc:format>
        <dc:type
           rdf:resource="http://purl.org/dc/dcmitype/StillImage" />
        <dc:title />
      </cc:Work>
    </rdf:RDF>
  </metadata>
  <g
     inkscape:label="text"
     id="g4296"
     inkscape:groupmode="layer"
     style="display:inline;opacity:1"
     transform="translate(0,-1029.3622)">
    <path
       sodipodi:nodetypes="ccccccsccc"
       inkscape:connector-curvature="0"
       id="path4298"
       d="m 0.5935847,1045.085 c -0.1757789,-6.6124 -1.4113954,-13.9179 7.4650113,-15.2633 6.927776,0.1246 7.895418,6.7015 7.827599,7.6068 0.180767,1.6013 0,7.6565 0,7.6565 l -2.742121,0 0,-7.6565 c 0,0 0,-4.9439 -4.886608,-4.9439 -4.9569132,0 -4.9569132,4.9439 -4.9569132,4.9439 l 0,7.6565 z"
       style="fill:#ffffff;fill-opacity:1;stroke:#204534;stroke-width:0.55683357;stroke-linecap:butt;stroke-linejoin:miter;stroke-miterlimit:4;stroke-dasharray:none;stroke-opacity:1" />
    <path
       sodipodi:nodetypes="csscssccssccsssss"
       inkscape:connector-curvature="0"
       id="path4300"
       d="m 24.66805,1029.7706 c -4.926064,0 -7.665162,4.0455 -7.665162,7.6565 0,3.611 3.240869,7.7599 7.665162,7.6564 4.552173,-0.1064 4.846192,-2.8276 4.846192,-2.8276 l 0,2.8276 c 0,1.3293 -1.361594,4.2024 -4.846192,4.2024 -4.130923,0 -4.924496,-4.2024 -4.924496,-4.2024 l -2.740666,0 c 0,0 0.995738,6.8734 7.665162,6.8734 4.851449,0 7.656461,-4.2866 7.656461,-6.8734 l 0,-7.6564 c 0.0031,-2.6223 -2.809317,-7.655 -7.656461,-7.6565 z m -0.07831,2.7146 c 2.308637,0.034 4.851314,1.7878 4.846191,4.9419 -0.0037,2.2652 -1.36787,4.8227 -4.776588,4.8288 -3.126965,0.01 -4.833175,-2.5471 -4.854892,-4.8288 -0.0218,-2.2925 1.995594,-4.9833 4.785289,-4.9419 z"
       style="fill:#ffffff;fill-opacity:1;stroke:#204534;stroke-width:0.55683357;stroke-linecap:butt;stroke-linejoin:miter;stroke-miterlimit:4;stroke-dasharray:none;stroke-opacity:1" />
    <path
       sodipodi:nodetypes="csscccccsssss"
       inkscape:connector-curvature="0"
       id="path4302"
       d="m 41.10334,1029.7706 c -3.61104,0 -7.466291,3.1008 -7.665161,7.6565 -0.157484,3.6076 4.054121,7.6564 7.665161,7.6564 1.645316,0 3.3814,-0.8408 4.785289,-2.0968 l 0,2.0968 2.879873,0 0,-7.6564 c -0.284865,-4.5222 -3.71075,-7.5941 -7.665162,-7.6565 z m 0,2.7146 c 2.3007,0.01 4.848367,1.9173 4.884723,4.9419 0.02739,2.2787 -1.417326,4.7463 -4.884723,4.8288 -2.968449,0.071 -4.796914,-2.534 -4.846191,-4.8288 -0.06317,-2.9416 2.545492,-4.9503 4.846191,-4.9419 z"
       style="fill:#ffffff;fill-opacity:1;stroke:#204534;stroke-width:0.55683357;stroke-linecap:butt;stroke-linejoin:miter;stroke-miterlimit:4;stroke-dasharray:none;stroke-opacity:1" />
    <path
       sodipodi:nodetypes="ccccssccsssss"
       inkscape:connector-curvature="0"
       id="path4304"
       d="m 66.326158,1037.4271 0,14.5298 2.81027,0 0.149151,-8.7328 c 1.415818,1.2907 3.033225,1.7416 4.705742,1.76 4.505955,0.05 7.644902,-3.9462 7.606748,-7.557 -0.04967,-4.7048 -3.945991,-7.6068 -7.557032,-7.6068 -5.30218,-0.2472 -7.716877,4.9845 -7.714879,7.6068 z m 7.734767,-4.9419 c 2.3007,0.01 4.728949,1.8691 4.826301,4.9419 0.08954,2.8258 -2.20479,4.8205 -4.826301,4.8785 -2.272951,0.05 -4.929539,-1.4895 -5.004043,-4.8785 -0.0734,-3.3387 2.703343,-4.9503 5.004043,-4.9419 z"
       style="fill:#8ba23a;fill-opacity:1;stroke:#8ba23a;stroke-width:0.557;stroke-linecap:butt;stroke-linejoin:miter;stroke-miterlimit:4;stroke-dasharray:none;stroke-opacity:1" />
    <path
       sodipodi:nodetypes="csccccsccsccc"
       inkscape:connector-curvature="0"
       id="path4306-1"
       d="m 61.71989,1035.2199 c -1.235112,-4.1499 -7.580453,-3.7399 -8.128287,-1.0792 -0.231358,1.1237 0.807616,2.0939 2.197828,2.3345 3.909762,0.4391 8.690977,0.6537 8.188673,4.3844 -0.897641,4.7673 -10.492526,6.1558 -13.534218,-0.4602 0,0 2.183643,0.057 3.33445,0.045 1.151789,3.0036 7.233499,2.6856 7.240148,0.2682 0.0025,-0.909 -0.780583,-1.6199 -1.926716,-1.8614 -3.262607,-0.2441 -8.708996,-0.9378 -8.257398,-4.855 0.411369,-2.7316 4.14501,-4.4551 7.177985,-4.1417 3.032975,0.3135 5.982492,2.2169 6.771942,5.398 -1.070019,-0.013 -1.152233,-0.019 -1.903693,-0.011 z"
       style="display:inline;opacity:1;fill:#8ba23a;fill-opacity:1;stroke:#8ba23a;stroke-width:0.55683357;stroke-linecap:butt;stroke-linejoin:miter;stroke-miterlimit:4;stroke-dasharray:none;stroke-opacity:1" />
    <g
       style="font-style:normal;font-weight:normal;font-size:15px;line-height:125%;font-family:sans-serif;letter-spacing:0px;word-spacing:0px;display:inline;opacity:0.5;fill:#000000;fill-opacity:1;stroke:none;stroke-width:1px;stroke-linecap:butt;stroke-linejoin:miter;stroke-opacity:1;filter:url(#filter4279)"
       id="text4195-0"
       transform="matrix(0.9681343,0,0,0.50464416,50.608325,539.86356)">
      <path
         d="m 28.48278,1009.8449 -0.322265,-1.6919 q -0.32959,-1.7358 -1.633301,-1.7358 -0.981445,0 -1.428223,0.8056 -0.563964,1.0108 -0.563964,2.3438 0,1.6113 0.549316,2.3804 0.556641,0.7837 1.442871,0.7837 0.981445,0 1.508789,-1.5601 l 0.446777,-1.3257 z m 0.754395,-2.2412 0.725098,-2.146 1.201172,0 -1.501465,4.4458 0.292968,1.604 q 0.06592,0.3589 0.322266,0.6592 0.300293,0.3515 0.534668,0.3515 l 0.644531,0 0,1.1426 -0.805664,0 q -0.688476,0 -1.303711,-0.6152 -0.300293,-0.3076 -0.424804,-0.9522 -0.336914,0.813 -1.025391,1.4502 -0.322266,0.3003 -1.369629,0.3003 -1.721191,0 -2.556152,-1.1132 -0.856934,-1.15 -0.856934,-3.1641 0,-2.1533 0.930176,-3.1641 1.032715,-1.1279 2.48291,-1.1279 2.277832,0 2.709961,2.3291 z"
         style="font-style:italic;font-variant:normal;font-weight:normal;font-stretch:normal;font-family:sans-serif;-inkscape-font-specification:'sans-serif Italic'"
         id="path4200-10"
         inkscape:connector-curvature="0" />
    </g>
    <g
       style="font-style:normal;font-weight:normal;font-size:15px;line-height:125%;font-family:sans-serif;letter-spacing:0px;word-spacing:0px;display:inline;opacity:1;fill:#ffffff;fill-opacity:1;stroke:none;stroke-width:1px;stroke-linecap:butt;stroke-linejoin:miter;stroke-opacity:1"
       id="text4195"
       transform="matrix(0.9681343,0,0,0.50464416,50.639005,539.80771)">
      <path
         d="m 28.48278,1009.8449 -0.322265,-1.6919 q -0.32959,-1.7358 -1.633301,-1.7358 -0.981445,0 -1.428223,0.8056 -0.563964,1.0108 -0.563964,2.3438 0,1.6113 0.549316,2.3804 0.556641,0.7837 1.442871,0.7837 0.981445,0 1.508789,-1.5601 l 0.446777,-1.3257 z m 0.754395,-2.2412 0.725098,-2.146 1.201172,0 -1.501465,4.4458 0.292968,1.604 q 0.06592,0.3589 0.322266,0.6592 0.300293,0.3515 0.534668,0.3515 l 0.644531,0 0,1.1426 -0.805664,0 q -0.688476,0 -1.303711,-0.6152 -0.300293,-0.3076 -0.424804,-0.9522 -0.336914,0.813 -1.025391,1.4502 -0.322266,0.3003 -1.369629,0.3003 -1.721191,0 -2.556152,-1.1132 -0.856934,-1.15 -0.856934,-3.1641 0,-2.1533 0.930176,-3.1641 1.032715,-1.1279 2.48291,-1.1279 2.277832,0 2.709961,2.3291 z"
         style="font-style:italic;font-variant:normal;font-weight:normal;font-stretch:normal;font-family:sans-serif;-inkscape-font-specification:'sans-serif Italic';fill:#ffffff"
         id="path4200"
         inkscape:connector-curvature="0" />
    </g>
  </g>
  <g
     inkscape:groupmode="layer"
     id="layer1"
     inkscape:label="lines" />
  <g
     inkscape:groupmode="layer"
     id="layer3"
     inkscape:label="old S"
     sodipodi:insensitive="true"
     style="display:none">
    <path
       sodipodi:nodetypes="cccsscccccsccccc"
       inkscape:connector-curvature="0"
       id="path4306"
       d="m 61.757041,5.8232478 c 0,0 -0.928337,-2.2848 -4.244924,-2.3199 -1.747281,-0.07 -4.203914,1.3416 -4.750806,3.7997 2.001864,-0.025 7.356617,-0.042 9.589581,-0.05 2.232964,-0.01 2.748653,1.2698 2.698614,2.3553 -0.143436,3.1113002 -3.147984,6.4527002 -7.543124,6.4932002 -5.997802,-0.5624 -7.069987,-5.0764 -7.069987,-5.0764 0,0 1.702474,0.012 2.853281,0 1.971128,2.2383 2.871881,2.2933 4.216706,2.3988 3.709828,-0.056 4.973364,-3.0336 4.957826,-3.9337002 -1.236814,-0.032 -8.675202,-0.07 -9.637658,-0.063 -0.786864,0.01 -2.782506,-0.017 -2.877674,-2.124 1.203816,-4.6735 4.655771,-6.41259998 7.557506,-6.51199998 3.496522,0.043 6.323382,2.27379998 7.315067,5.06449998 -0.898616,-0.022 -2.890788,-0.033 -2.890788,-0.033 z"
       style="display:inline;opacity:1;fill:#8ba23a;fill-opacity:1;stroke:#8ba23a;stroke-width:0.55683357;stroke-linecap:butt;stroke-linejoin:miter;stroke-miterlimit:4;stroke-dasharray:none;stroke-opacity:1" />
  </g>
  <g
     style="display:none;opacity:0.43399999"
     inkscape:label="rodona"
     id="g4277"
     inkscape:groupmode="layer"
     sodipodi:insensitive="true">
    <ellipse
       cy="8.0328274"
       cx="57.467911"
       id="circle4279"
       style="opacity:1;fill:none;fill-opacity:1;fill-rule:nonzero;stroke:#000000;stroke-width:3.43425655;stroke-linecap:round;stroke-linejoin:round;stroke-miterlimit:4;stroke-dasharray:none;stroke-dashoffset:0;stroke-opacity:1"
       rx="6.2140064"
       ry="6.1916857" />
  </g>
</svg>
