<?xml version="1.0" encoding="UTF-8" standalone="no"?>
<!-- Created with Inkscape (http://www.inkscape.org/) -->

<svg
   xmlns:dc="http://purl.org/dc/elements/1.1/"
   xmlns:cc="http://creativecommons.org/ns#"
   xmlns:rdf="http://www.w3.org/1999/02/22-rdf-syntax-ns#"
   xmlns:svg="http://www.w3.org/2000/svg"
   xmlns="http://www.w3.org/2000/svg"
   xmlns:sodipodi="http://sodipodi.sourceforge.net/DTD/sodipodi-0.dtd"
   xmlns:inkscape="http://www.inkscape.org/namespaces/inkscape"
   width="32mm"
   height="32mm"
   viewBox="0 0 113.38583 113.38583"
   id="svg2"
   version="1.1"
   inkscape:version="0.91 r13725"
   sodipodi:docname="node_donutchart.svg"
   inkscape:export-filename="/home/jjene/NetBeansProjects/ngaSP/webapp/public/images/output_icon.png"
   inkscape:export-xdpi="34.909096"
   inkscape:export-ydpi="34.909096"
   enable-background="new">
  <defs
     id="defs4">
    <filter
       style="color-interpolation-filters:sRGB;"
       inkscape:label="Greyscale"
       id="filter4265">
      <feColorMatrix
         values="0.21 0.72 0.072 0 0 0.21 0.72 0.072 0 0 0.21 0.72 0.072 0 0 0 0 0 1 0 "
         id="feColorMatrix4267" />
    </filter>
  </defs>
  <sodipodi:namedview
     id="base"
     pagecolor="#ffffff"
     bordercolor="#666666"
     borderopacity="1.0"
     inkscape:pageopacity="0"
     inkscape:pageshadow="2"
     inkscape:zoom="5.6568542"
     inkscape:cx="89.027233"
     inkscape:cy="83.326937"
     inkscape:document-units="px"
     inkscape:current-layer="layer4"
     showgrid="false"
     inkscape:window-width="2560"
     inkscape:window-height="1376"
     inkscape:window-x="0"
     inkscape:window-y="27"
     inkscape:window-maximized="1"
     showguides="true"
     inkscape:guide-bbox="true">
    <sodipodi:guide
       position="149.00001,56.000002"
       orientation="0,1"
       id="guide5247" />
    <sodipodi:guide
       position="0,120.56171"
       orientation="1,0"
       id="guide5249" />
    <sodipodi:guide
       position="25.102292,105.88925"
       orientation="1,0"
       id="guide5386" />
    <sodipodi:guide
       position="57.000002,97.500004"
       orientation="1,0"
       id="guide5388" />
    <sodipodi:guide
       position="99.878837,104.65181"
       orientation="1,0"
       id="guide5392" />
    <sodipodi:guide
       position="124.98113,111.5461"
       orientation="1,0"
       id="guide5394" />
    <sodipodi:guide
       position="-87.681245,76.544312"
       orientation="1,0"
       id="guide4233" />
  </sodipodi:namedview>
  <metadata
     id="metadata7">
    <rdf:RDF>
      <cc:Work
         rdf:about="">
        <dc:format>image/svg+xml</dc:format>
        <dc:type
           rdf:resource="http://purl.org/dc/dcmitype/StillImage" />
        <dc:title />
      </cc:Work>
    </rdf:RDF>
  </metadata>
  <g
     inkscape:groupmode="layer"
     id="layer1"
     inkscape:label="background"
     style="display:none">
    <rect
       style="opacity:1;fill:#999999;fill-opacity:1;fill-rule:nonzero;stroke:#808080;stroke-width:0.26400003;stroke-linecap:round;stroke-linejoin:round;stroke-miterlimit:4;stroke-dasharray:none;stroke-dashoffset:0;stroke-opacity:1"
       id="rect4159"
       width="113.66743"
       height="113.31388"
       x="0"
       y="0.0719641" />
  </g>
  <g
     inkscape:groupmode="layer"
     id="layer4"
     inkscape:label="image"
     style="display:inline;opacity:1;"
     transform="translate(0,6.4700241e-6)">
    <flowRoot
       xml:space="preserve"
       id="flowRoot4344"
       style="font-style:normal;font-weight:normal;font-size:15px;line-height:125%;font-family:sans-serif;letter-spacing:0px;word-spacing:0px;fill:#000000;fill-opacity:1;stroke:none;stroke-width:1px;stroke-linecap:butt;stroke-linejoin:miter;stroke-opacity:1"><flowRegion
         id="flowRegion4346"><rect
           id="rect4348"
           width="179.80716"
           height="44.446712"
           x="22.728432"
           y="-44.197971" /></flowRegion><flowPara
         id="flowPara4350" /></flowRoot>    <flowRoot
       xml:space="preserve"
       id="flowRoot4172"
       style="font-style:normal;font-weight:normal;font-size:10px;line-height:125%;font-family:sans-serif;letter-spacing:0px;word-spacing:0px;fill:#808080;fill-opacity:1;stroke:#808080;stroke-width:1px;stroke-linecap:butt;stroke-linejoin:miter;stroke-opacity:1"
       transform="translate(0,-6.4700241e-6)"><flowRegion
         id="flowRegion4174"><rect
           id="rect4176"
           width="39.951534"
           height="56.922096"
           x="150.79053"
           y="41.791264"
           style="font-size:10px;fill:#808080;stroke:#808080" /></flowRegion><flowPara
         id="flowPara4178" /></flowRoot>    <g
       id="g4269"
       transform="translate(-3.0844528e-6,-7.2478453)">
      <path
         style="fill:#c9c9c9"
         d="m 28.194028,64.725639 c -0.288816,-0.348004 -0.107739,-2.995804 0.364283,-5.326719 0.887479,-4.382504 2.381516,-7.474799 5.754547,-11.910522 4.773607,-6.277558 13.496432,-10.436884 21.254688,-10.134926 2.479282,0.0965 3.624389,0.226559 5.609991,0.637195 4.882225,1.009675 9.468207,3.36172 13.044439,6.690193 0.516066,0.480312 0.997636,0.873295 1.070157,0.873295 0.23431,0 1.346019,1.24946 2.601402,2.92374 1.154554,1.539806 3.306863,5.5464 3.510773,6.535417 0.04876,0.236478 0.32394,1.231546 0.61152,2.211258 0.539501,1.83794 1.015413,4.666736 1.089171,6.473967 l 0.04211,1.031908 -5.159539,0 -5.15954,0 -0.04088,-1.117901 c -0.04212,-1.151924 -0.810018,-4.56907 -1.10935,-4.936635 -0.09274,-0.113882 -0.423951,-0.733026 -0.736019,-1.375877 -0.31207,-0.642852 -0.982743,-1.735391 -1.490383,-2.427865 -0.507642,-0.692474 -1.136445,-1.556466 -1.397341,-1.919983 -0.79483,-1.10747 -2.76346,-2.607217 -4.685183,-3.569284 -2.720794,-1.362103 -5.27834,-1.91759 -7.96841,-1.730701 -3.169461,0.220194 -5.088856,0.696008 -7.338224,1.81913 -2.997227,1.496532 -6.161162,4.343955 -7.209078,6.487898 -1.179584,2.413323 -2.012462,5.17503 -2.256227,7.481333 -0.06499,0.614845 -0.196406,1.214641 -0.292044,1.332881 -0.131687,0.162809 -1.353171,0.214981 -5.033331,0.214981 -4.149192,0 -4.891321,-0.03841 -5.077536,-0.262783 z"
         id="path4283"
         inkscape:connector-curvature="0" />
      <path
         style="fill:#b3b3b3"
         d="m 72.843467,64.536661 c -0.05905,-0.153877 -0.03414,-0.368001 0.05535,-0.475832 0.104726,-0.126188 0.0096,-0.930516 -0.267017,-2.256997 C 72.018742,58.863651 72.030571,58.90848 71.79298,58.624989 71.674064,58.483102 71.325309,57.863957 71.017967,57.249112 68.478134,52.168116 64.22081,48.89584 58.754166,47.822873 57.147912,47.507605 54.771478,47.5622 52.533843,47.965776 c -3.104402,0.559905 -6.243836,2.149079 -8.654404,4.38084 -0.562491,0.520767 -1.115876,0.946849 -1.229747,0.946849 -0.315048,0 -7.569281,-6.414055 -7.570887,-6.694036 -7.73e-4,-0.134536 0.607116,-0.83145 1.350863,-1.548697 4.172993,-4.024306 9.537682,-6.651964 15.30868,-7.498286 4.702007,-0.689553 10.788475,0.258598 15.43187,2.403978 4.926275,2.276079 9.452596,6.32072 12.173012,10.877585 0.860709,1.441745 1.826057,3.558773 1.826057,4.004587 0,0.20008 0.107662,0.572769 0.239248,0.828199 0.416621,0.808723 1.29767,4.636465 1.404987,6.103998 0.05678,0.776485 0.181442,1.618916 0.277024,1.872069 0.09558,0.253154 0.122846,0.620772 0.06059,0.816927 -0.111147,0.350193 -0.204478,0.356648 -5.156753,0.356648 -4.49916,0 -5.055145,-0.0302 -5.150917,-0.279776 z M 28.281699,64.46873 c -0.326507,-0.5283 0.495649,-5.642015 1.305562,-8.120446 0.650518,-1.990664 1.958772,-4.774666 2.243703,-4.774666 0.241904,0 7.703329,4.179296 8.246113,4.618817 0.348754,0.282404 0.348533,0.284368 -0.157505,1.400674 -0.751392,1.657548 -1.220603,3.347095 -1.460761,5.259944 l -0.214114,1.705407 -4.92558,0.04561 C 30.01052,64.63471 28.356823,64.59028 28.281699,64.468726 Z M 38.443971,51.938408 c -0.05138,-0.08314 -0.439026,-0.112211 -0.861428,-0.0646 -0.716174,0.08073 -0.775647,0.05611 -0.881285,-0.364788 -0.138885,-0.553364 -0.376729,-0.58732 -0.450997,-0.06439 -0.07458,0.525143 -0.37463,0.428066 -0.505232,-0.163461 -0.05847,-0.264815 -0.13586,-0.595734 -0.171984,-0.735376 -0.09526,-0.368226 0.670375,-0.43564 1.049629,-0.09242 0.23538,0.213017 0.574989,0.270289 1.369281,0.230926 1.085515,-0.0538 1.376235,0.09886 1.38243,0.725933 0.005,0.506963 -0.697169,0.905573 -0.930414,0.528175 z"
         id="path4281"
         inkscape:connector-curvature="0" />
      <path
         style="fill:#ababab"
         d="m 28.281699,64.46873 c -0.326507,-0.5283 0.495649,-5.642015 1.305562,-8.120446 0.650518,-1.990664 1.958772,-4.774666 2.243703,-4.774666 0.241904,0 7.703329,4.179296 8.246113,4.618817 0.348754,0.282404 0.348533,0.284368 -0.157505,1.400674 -0.751392,1.657548 -1.220603,3.347095 -1.460761,5.259944 l -0.214114,1.705407 -4.92558,0.04561 c -3.308597,0.03064 -4.962294,-0.01379 -5.037418,-0.135344 z m 44.8849,-0.005 c -0.06327,-0.102371 -0.08534,-0.215817 -0.04906,-0.252102 0.145024,-0.145025 9.523573,-0.56628 9.658734,-0.433842 0.07981,0.07821 0.117481,0.285854 0.08371,0.461437 -0.05781,0.300495 -0.340845,0.321924 -4.819881,0.364937 C 74.7659,64.6356 73.245753,64.59179 73.166601,64.46373 Z M 73.030007,63.65554 C 72.988037,63.5846 72.900516,63.178283 72.83551,62.752621 72.61825,61.330012 71.999859,58.88595 71.791147,58.624989 71.677666,58.483102 71.265787,57.747868 70.875856,56.991135 70.485928,56.234403 69.74186,55.073506 69.222374,54.411365 68.702887,53.749224 68.20242,53.0839 68.110223,52.932866 c -0.135639,-0.222199 0.517369,-0.936079 3.42171,-3.740665 1.974138,-1.906334 3.657044,-3.466061 3.739792,-3.466061 0.410105,0 2.558532,2.647488 3.838036,4.729578 0.953679,1.551885 2.059528,3.901814 2.059528,4.376495 0,0.203591 0.107662,0.579152 0.239248,0.834582 0.42716,0.829179 1.315192,4.717871 1.422447,6.228887 l 0.10451,1.472352 -4.537776,0.211935 c -5.255255,0.245442 -5.267124,0.245609 -5.367711,0.07557 z M 38.95985,49.882419 c -1.884796,-1.676189 -3.454676,-3.130943 -3.488624,-3.232785 -0.112939,-0.338818 3.020691,-3.126294 4.985426,-4.434715 4.475181,-2.980261 8.711199,-4.33668 14.120883,-4.521658 l 2.903613,-0.09929 -0.104147,0.927363 c -0.05728,0.510049 -0.227293,2.63001 -0.377802,4.711025 -0.150511,2.081014 -0.308071,3.888433 -0.350135,4.016487 -0.04368,0.132967 -0.194227,0.187641 -0.351014,0.127476 -0.451908,-0.173413 -3.843148,0.213968 -5.226697,0.597046 -2.591298,0.71748 -5.234274,2.190249 -7.155296,3.987212 -0.581453,0.543901 -1.163413,0.984533 -1.293246,0.979183 -0.129833,-0.0053 -1.778166,-1.381158 -3.662961,-3.057348 z m -0.515879,2.055989 c -0.05138,-0.08314 -0.439026,-0.112211 -0.861428,-0.0646 -0.716174,0.08073 -0.775647,0.05611 -0.881285,-0.364788 -0.138885,-0.553364 -0.376729,-0.58732 -0.450997,-0.06439 -0.07458,0.525143 -0.37463,0.428066 -0.505232,-0.163461 -0.05847,-0.264815 -0.13586,-0.595734 -0.171984,-0.735376 -0.09526,-0.368226 0.670375,-0.43564 1.049629,-0.09242 0.23538,0.213017 0.574989,0.270289 1.369281,0.230926 1.085515,-0.0538 1.376235,0.09886 1.38243,0.725933 0.005,0.506963 -0.697169,0.905573 -0.930414,0.528175 z M 64.57277,44.350263 c -0.05846,-0.09459 0.01893,-0.171985 0.171985,-0.171985 0.153052,0 0.230446,0.07739 0.171985,0.171985 -0.05846,0.09459 -0.135855,0.171985 -0.171985,0.171985 -0.03613,0 -0.113524,-0.07739 -0.171985,-0.171985 z m 0.969859,-0.177707 c -0.223311,-0.186036 -0.335531,-0.338247 -0.249377,-0.338247 0.08615,0 0.236253,0.07961 0.333557,0.176917 0.121234,0.121233 0.316526,0.0671 0.620474,-0.171985 0.472028,-0.371297 0.819265,-0.451572 0.819265,-0.189399 0,0.166917 -0.82876,0.8766 -1.012106,0.866684 -0.05819,-0.0031 -0.288502,-0.157933 -0.511813,-0.34397 z m -2.400995,-0.496987 c 0.03039,-0.323786 0.135246,-0.614874 0.233007,-0.646864 0.24804,-0.08116 0.186369,0.769059 -0.07437,1.025336 -0.169951,0.16704 -0.202542,0.08929 -0.158636,-0.378472 z m 1.43287,-0.188035 c 0.05941,-0.09613 0.180071,-0.130263 0.268127,-0.07584 0.23855,0.147432 0.19407,0.250632 -0.108027,0.250632 -0.14747,0 -0.219514,-0.07865 -0.1601,-0.17479 z"
         id="path4279"
         inkscape:connector-curvature="0" />
      <path
         style="fill:#8d8d8d"
         d="m 28.281699,64.46873 c -0.326507,-0.5283 0.495649,-5.642015 1.305562,-8.120446 0.650518,-1.990664 1.958772,-4.774666 2.243703,-4.774666 0.241904,0 7.703329,4.179296 8.246113,4.618817 0.348754,0.282404 0.348533,0.284368 -0.157505,1.400674 -0.751392,1.657548 -1.220603,3.347095 -1.460761,5.259944 l -0.214114,1.705407 -4.92558,0.04561 c -3.308597,0.03064 -4.962294,-0.01379 -5.037418,-0.135344 z m 44.8849,-0.005 c -0.06327,-0.102371 -0.08534,-0.215817 -0.04906,-0.252102 0.145024,-0.145025 9.523573,-0.56628 9.658734,-0.433842 0.07981,0.07821 0.117481,0.285854 0.08371,0.461437 -0.05781,0.300495 -0.340845,0.321924 -4.819881,0.364937 -3.274202,0.03144 -4.794349,-0.01237 -4.873501,-0.14043 z m 3.359104,-4.461465 c 0,-0.07959 0.09674,-0.184998 0.214981,-0.234236 0.153756,-0.06403 0.123122,-0.163714 -0.107564,-0.350037 -0.396925,-0.320596 -0.252319,-0.792999 0.242744,-0.792999 0.277406,0 0.336751,0.07627 0.256379,0.329495 -0.140334,0.442157 0.249029,0.660296 0.519167,0.290861 0.322174,-0.440601 1.110094,-0.196291 1.110094,0.344205 0,0.226223 -0.09674,0.417474 -0.214981,0.424996 -0.118239,0.0075 -0.621295,0.0404 -1.1179,0.07306 -0.496606,0.03266 -0.90292,-0.0057 -0.90292,-0.08534 z M 71.196676,57.0821 c -0.378079,-0.751965 -1.195927,-2.03367 -1.817437,-2.848234 l -1.13002,-1.481027 3.387594,-3.298366 c 1.863176,-1.814102 3.482192,-3.321269 3.597812,-3.349261 0.316548,-0.07663 1.838817,1.674107 3.090669,3.554538 1.204109,1.808714 2.752208,4.899997 2.620798,5.233276 -0.04473,0.113455 -1.618721,0.778798 -3.497749,1.478542 -1.879031,0.699743 -3.899678,1.453494 -4.490332,1.675 l -1.073915,0.40274 -0.68742,-1.367208 z M 38.95985,49.882419 c -1.884796,-1.676189 -3.454676,-3.130943 -3.488624,-3.232785 -0.112939,-0.338818 3.020691,-3.126294 4.985426,-4.434715 4.475181,-2.980261 8.711199,-4.33668 14.120883,-4.521658 l 2.903613,-0.09929 -0.104147,0.927363 c -0.05728,0.510049 -0.227293,2.63001 -0.377802,4.711025 -0.150511,2.081014 -0.308071,3.888433 -0.350135,4.016487 -0.04368,0.132967 -0.194227,0.187641 -0.351014,0.127476 -0.451908,-0.173413 -3.843148,0.213968 -5.226697,0.597046 -2.591298,0.71748 -5.234274,2.190249 -7.155296,3.987212 -0.581453,0.543901 -1.163413,0.984533 -1.293246,0.979183 -0.129833,-0.0053 -1.778166,-1.381158 -3.662961,-3.057348 z m -0.515879,2.055989 c -0.05138,-0.08314 -0.439026,-0.112211 -0.861428,-0.0646 -0.716174,0.08073 -0.775647,0.05611 -0.881285,-0.364788 -0.138885,-0.553364 -0.376729,-0.58732 -0.450997,-0.06439 -0.07458,0.525143 -0.37463,0.428066 -0.505232,-0.163461 -0.05847,-0.264815 -0.13586,-0.595734 -0.171984,-0.735376 -0.09526,-0.368226 0.670375,-0.43564 1.049629,-0.09242 0.23538,0.213017 0.574989,0.270289 1.369281,0.230926 1.085515,-0.0538 1.376235,0.09886 1.38243,0.725933 0.005,0.506963 -0.697169,0.905573 -0.930414,0.528175 z M 64.57277,44.350263 c -0.05846,-0.09459 0.01893,-0.171985 0.171985,-0.171985 0.153052,0 0.230446,0.07739 0.171985,0.171985 -0.05846,0.09459 -0.135855,0.171985 -0.171985,0.171985 -0.03613,0 -0.113524,-0.07739 -0.171985,-0.171985 z m 0.969859,-0.177707 c -0.223311,-0.186036 -0.335531,-0.338247 -0.249377,-0.338247 0.08615,0 0.236253,0.07961 0.333557,0.176917 0.121234,0.121233 0.316526,0.0671 0.620474,-0.171985 0.472028,-0.371297 0.819265,-0.451572 0.819265,-0.189399 0,0.166917 -0.82876,0.8766 -1.012106,0.866684 -0.05819,-0.0031 -0.288502,-0.157933 -0.511813,-0.34397 z m -2.400995,-0.496987 c 0.03039,-0.323786 0.135246,-0.614874 0.233007,-0.646864 0.24804,-0.08116 0.186369,0.769059 -0.07437,1.025336 -0.169951,0.16704 -0.202542,0.08929 -0.158636,-0.378472 z m 1.43287,-0.188035 c 0.05941,-0.09613 0.180071,-0.130263 0.268127,-0.07584 0.23855,0.147432 0.19407,0.250632 -0.108027,0.250632 -0.14747,0 -0.219514,-0.07865 -0.1601,-0.17479 z"
         id="path4277"
         inkscape:connector-curvature="0" />
      <path
         style="fill:#808080"
         d="m 73.166599,64.463726 c -0.06327,-0.102371 -0.08534,-0.215817 -0.04906,-0.252102 0.145024,-0.145025 9.523573,-0.56628 9.658734,-0.433842 0.07981,0.07821 0.117481,0.285854 0.08371,0.461437 -0.05781,0.300495 -0.340845,0.321924 -4.819881,0.364937 -3.274202,0.03144 -4.794349,-0.01237 -4.873501,-0.14043 z M 28.597511,62.626398 c 0.124519,-2.14778 0.553216,-4.274744 1.326459,-6.581179 0.650297,-1.939711 1.76769,-4.23077 2.034546,-4.171554 0.2358,0.05232 7.794201,4.317038 7.993476,4.510199 0.07976,0.07731 -0.127521,0.826018 -0.460615,1.6638 -0.767697,1.930876 -1.134562,3.365608 -1.285167,5.026015 l -0.119076,1.312796 -4.798485,0.04576 -4.798485,0.04576 0.107347,-1.851602 z m 47.928192,-2.624137 c 0,-0.07959 0.09674,-0.184998 0.214981,-0.234236 0.153756,-0.06403 0.123122,-0.163714 -0.107564,-0.350037 -0.396925,-0.320596 -0.252319,-0.792999 0.242744,-0.792999 0.277406,0 0.336751,0.07627 0.256379,0.329495 -0.140334,0.442157 0.249029,0.660296 0.519167,0.290861 0.322174,-0.440601 1.110094,-0.196291 1.110094,0.344205 0,0.226223 -0.09674,0.417474 -0.214981,0.424996 -0.118239,0.0075 -0.621295,0.0404 -1.1179,0.07306 -0.496606,0.03266 -0.90292,-0.0057 -0.90292,-0.08534 z m -5.329027,-2.920165 c -0.378079,-0.751965 -1.195927,-2.03367 -1.817437,-2.848234 l -1.13002,-1.481027 3.387594,-3.298366 c 1.863176,-1.814102 3.482192,-3.321269 3.597812,-3.349261 0.316548,-0.07663 1.838817,1.674107 3.090669,3.554538 1.204109,1.808714 2.752208,4.899997 2.620798,5.233276 -0.04473,0.113455 -1.618721,0.778798 -3.497749,1.478542 -1.879031,0.699743 -3.899678,1.453494 -4.490332,1.675 l -1.073915,0.40274 -0.68742,-1.367208 z M 38.95985,49.882419 c -1.884796,-1.676189 -3.454676,-3.130943 -3.488624,-3.232785 -0.112939,-0.338818 3.020691,-3.126294 4.985426,-4.434715 4.475181,-2.980261 8.711199,-4.33668 14.120883,-4.521658 l 2.903613,-0.09929 -0.104147,0.927363 c -0.05728,0.510049 -0.227293,2.63001 -0.377802,4.711025 -0.150511,2.081014 -0.308071,3.888433 -0.350135,4.016487 -0.04368,0.132967 -0.194227,0.187641 -0.351014,0.127476 -0.451908,-0.173413 -3.843148,0.213968 -5.226697,0.597046 -2.591298,0.71748 -5.234274,2.190249 -7.155296,3.987212 -0.581453,0.543901 -1.163413,0.984533 -1.293246,0.979183 -0.129833,-0.0053 -1.778166,-1.381158 -3.662961,-3.057348 z m 25.61292,-5.532156 c -0.05846,-0.09459 0.01893,-0.171985 0.171985,-0.171985 0.153052,0 0.230446,0.07739 0.171985,0.171985 -0.05846,0.09459 -0.135855,0.171985 -0.171985,0.171985 -0.03613,0 -0.113524,-0.07739 -0.171985,-0.171985 z m 0.969859,-0.177707 c -0.223311,-0.186036 -0.335531,-0.338247 -0.249377,-0.338247 0.08615,0 0.236253,0.07961 0.333557,0.176917 0.121234,0.121233 0.316526,0.0671 0.620474,-0.171985 0.472028,-0.371297 0.819265,-0.451572 0.819265,-0.189399 0,0.166917 -0.82876,0.8766 -1.012106,0.866684 -0.05819,-0.0031 -0.288502,-0.157933 -0.511813,-0.34397 z m -2.400995,-0.496987 c 0.03039,-0.323786 0.135246,-0.614874 0.233007,-0.646864 0.24804,-0.08116 0.186369,0.769059 -0.07437,1.025336 -0.169951,0.16704 -0.202542,0.08929 -0.158636,-0.378472 z m 1.43287,-0.188035 c 0.05941,-0.09613 0.180071,-0.130263 0.268127,-0.07584 0.23855,0.147432 0.19407,0.250632 -0.108027,0.250632 -0.14747,0 -0.219514,-0.07865 -0.1601,-0.17479 z"
         id="path4275"
         inkscape:connector-curvature="0" />
      <path
         style="fill:#6c6c6c"
         d="m 28.597511,62.626398 c 0.124519,-2.14778 0.553216,-4.274744 1.326459,-6.581179 0.650297,-1.939711 1.76769,-4.23077 2.034546,-4.171554 0.2358,0.05232 7.794201,4.317038 7.993476,4.510199 0.07976,0.07731 -0.127521,0.826018 -0.460615,1.6638 -0.767697,1.930876 -1.134562,3.365608 -1.285167,5.026015 l -0.119076,1.312796 -4.798485,0.04576 -4.798485,0.04576 0.107347,-1.851602 z m 47.928192,-2.624137 c 0,-0.07959 0.09674,-0.184998 0.214981,-0.234236 0.153756,-0.06403 0.123122,-0.163714 -0.107564,-0.350037 -0.396925,-0.320596 -0.252319,-0.792999 0.242744,-0.792999 0.277406,0 0.336751,0.07627 0.256379,0.329495 -0.140334,0.442157 0.249029,0.660296 0.519167,0.290861 0.322174,-0.440601 1.110094,-0.196291 1.110094,0.344205 0,0.226223 -0.09674,0.417474 -0.214981,0.424996 -0.118239,0.0075 -0.621295,0.0404 -1.1179,0.07306 -0.496606,0.03266 -0.90292,-0.0057 -0.90292,-0.08534 z m -5.329027,-2.920165 c -0.378079,-0.751965 -1.195927,-2.03367 -1.817437,-2.848234 l -1.13002,-1.481027 3.387594,-3.298366 c 1.863176,-1.814102 3.482192,-3.321269 3.597812,-3.349261 0.316548,-0.07663 1.838817,1.674107 3.090669,3.554538 1.204109,1.808714 2.752208,4.899997 2.620798,5.233276 -0.04473,0.113455 -1.618721,0.778798 -3.497749,1.478542 -1.879031,0.699743 -3.899678,1.453494 -4.490332,1.675 l -1.073915,0.40274 -0.68742,-1.367208 z"
         id="path4273"
         inkscape:connector-curvature="0" />
      <path
         style="fill:#565656"
         d="m 76.525703,60.002261 c 0,-0.07959 0.09674,-0.184998 0.214981,-0.234236 0.153756,-0.06403 0.123122,-0.163714 -0.107564,-0.350037 -0.396925,-0.320596 -0.252319,-0.792999 0.242744,-0.792999 0.277406,0 0.336751,0.07627 0.256379,0.329495 -0.140334,0.442157 0.249029,0.660296 0.519167,0.290861 0.322174,-0.440601 1.110094,-0.196291 1.110094,0.344205 0,0.226223 -0.09674,0.417474 -0.214981,0.424996 -0.118239,0.0075 -0.621295,0.0404 -1.1179,0.07306 -0.496606,0.03266 -0.90292,-0.0057 -0.90292,-0.08534 z m -5.329027,-2.920165 c -0.378079,-0.751965 -1.195927,-2.03367 -1.817437,-2.848234 l -1.13002,-1.481027 3.387594,-3.298366 c 1.863176,-1.814102 3.482192,-3.321269 3.597812,-3.349261 0.316548,-0.07663 1.838817,1.674107 3.090669,3.554538 1.204109,1.808714 2.752208,4.899997 2.620798,5.233276 -0.04473,0.113455 -1.618721,0.778798 -3.497749,1.478542 -1.879031,0.699743 -3.899678,1.453494 -4.490332,1.675 l -1.073915,0.40274 -0.68742,-1.367208 z"
         id="path4271"
         inkscape:connector-curvature="0" />
    </g>
  </g>
  <g
     inkscape:groupmode="layer"
     id="layer2"
     inkscape:label="round_framework"
     style="display:inline"
     sodipodi:insensitive="true">
    <path
       style="display:inline;opacity:1;fill:#ffffff;fill-opacity:1;fill-rule:nonzero;stroke:none;stroke-width:1.00000012;stroke-linecap:round;stroke-linejoin:round;stroke-miterlimit:4;stroke-dasharray:none;stroke-dashoffset:0;stroke-opacity:1"
       d="m 0.75976562,0.14648438 0,112.97851562 112.48046438,0 0,-112.97851562 -112.48046438,0 z M 56.75,4.8398438 A 53.380143,52.045636 0 0 1 110.13086,56.886719 53.380143,52.045636 0 0 1 56.75,108.93164 53.380143,52.045636 0 0 1 3.3691406,56.886719 53.380143,52.045636 0 0 1 56.75,4.8398438 Z"
       id="rect5492"
       inkscape:connector-curvature="0" />
  </g>
</svg>
