<?xml version="1.0" encoding="UTF-8" standalone="no"?>
<!-- Created with Inkscape (http://www.inkscape.org/) -->

<svg
   xmlns:dc="http://purl.org/dc/elements/1.1/"
   xmlns:cc="http://creativecommons.org/ns#"
   xmlns:rdf="http://www.w3.org/1999/02/22-rdf-syntax-ns#"
   xmlns:svg="http://www.w3.org/2000/svg"
   xmlns="http://www.w3.org/2000/svg"
   xmlns:sodipodi="http://sodipodi.sourceforge.net/DTD/sodipodi-0.dtd"
   xmlns:inkscape="http://www.inkscape.org/namespaces/inkscape"
   width="32"
   height="32"
   viewBox="0 0 31.999998 32"
   id="svg4312"
   version="1.1"
   inkscape:version="0.91 r13725"
   sodipodi:docname="ngasp.svg"
   inkscape:export-filename="/data/github/ngasp-workshop01/icons/ngasp_icon.png"
   inkscape:export-xdpi="180"
   inkscape:export-ydpi="180">
  <defs
     id="defs4314" />
  <sodipodi:namedview
     id="base"
     pagecolor="#ffffff"
     bordercolor="#666666"
     borderopacity="1.0"
     inkscape:pageopacity="0.0"
     inkscape:pageshadow="2"
     inkscape:zoom="22.627417"
     inkscape:cx="0.28335317"
     inkscape:cy="15.234781"
     inkscape:document-units="px"
     inkscape:current-layer="layer1"
     showgrid="false"
     fit-margin-top="0"
     fit-margin-left="0"
     fit-margin-right="0"
     fit-margin-bottom="0"
     inkscape:window-width="2560"
     inkscape:window-height="1339"
     inkscape:window-x="0"
     inkscape:window-y="28"
     inkscape:window-maximized="1"
     showguides="false"
     inkscape:guide-bbox="true"
     units="px" />
  <metadata
     id="metadata4317">
    <rdf:RDF>
      <cc:Work
         rdf:about="">
        <dc:format>image/svg+xml</dc:format>
        <dc:type
           rdf:resource="http://purl.org/dc/dcmitype/StillImage" />
        <dc:title />
      </cc:Work>
    </rdf:RDF>
  </metadata>
  <g
     transform="translate(11.025055,-19.140627)"
     style="display:none"
     inkscape:label="background copia"
     id="g4149"
     inkscape:groupmode="layer">
    <rect
       y="18.396124"
       x="-11.641322"
       height="33.615013"
       width="33.235386"
       id="rect4151"
       style="opacity:1;fill:#000000;fill-opacity:1;stroke:none;stroke-width:0.1;stroke-linejoin:miter;stroke-miterlimit:4;stroke-dasharray:none;stroke-dashoffset:0;stroke-opacity:1" />
  </g>
  <g
     inkscape:groupmode="layer"
     id="layer3"
     inkscape:label="dna"
     style="display:inline"
     transform="translate(11.0102,-19.14202)"
     sodipodi:insensitive="true">
    <path
       style="display:inline;fill:#f0283f;fill-opacity:1;stroke:#ffffff;stroke-width:0;stroke-miterlimit:4;stroke-dasharray:none;stroke-opacity:1"
       d="m 15.699014,25.045551 c -1.351375,1.290936 -2.327828,2.912165 -3.17563,4.562728 -2.9426482,-1.133092 -6.3513547,-2.183293 -9.3981886,-0.824029 -2.47439959,1.20073 -3.57542756,3.896269 -4.6321963,6.259828 -0.6274289,1.483604 -1.017363,3.066739 -1.819821,4.471249 -2.6621524,-0.859644 -5.059504,-2.349707 -7.6361141,-3.417031 l 0.004,1.263684 c 1.7126276,0.869963 5.2772151,2.547794 7.0170621,3.356188 -0.9329135,1.684482 -2.1372277,3.237661 -3.6465787,4.445015 l 1.8543752,-0.01127 c 1.1282264,-1.180414 1.9454556,-2.683065 2.7524056,-4.063359 2.967091,1.092237 6.426248,2.10515 9.4562048,0.65325 2.7410003,-1.423822 3.827647,-4.517704 4.900392,-7.210665 0.504691,-1.142936 1.191137,-2.639722 1.533037,-3.432724 0.558245,0.24823 1.818574,0.729893 3.253691,1.412952 1.675275,0.797371 3.585521,1.82717 4.898387,2.438671 3.2e-5,-0.758662 -0.0032,-0.758662 -6.8e-5,-1.550322 -1.313775,-0.494259 -2.592345,-1.179136 -3.86791,-1.768292 -1.275567,-0.589153 -2.5417,-1.082591 -3.817711,-1.656948 0.962621,-1.837535 2.363,-3.61415 3.973656,-4.923845 -0.549604,-7.42e-4 -1.099596,-5.27e-4 -1.648964,-0.0018 z m -5.9553795,5.040945 c 0.8176825,0.247799 1.9223055,0.550284 2.2409785,0.642895 -0.69106,1.914436 -1.508803,3.78179 -2.3475402,5.63538 -0.9894517,2.12184 -2.726196,4.103442 -5.1315635,4.533076 -2.3680967,0.445706 -4.64873977,-0.299956 -6.8753698,-1.042769 0.9210813,-2.239414 1.61274794,-4.643373 2.69186437,-6.638237 1.17974803,-2.236758 3.55479773,-4.004344 6.17608153,-3.773326 1.100902,0.09798 2.1779978,0.367745 3.2455491,0.642981 z"
       id="path5107-4"
       inkscape:connector-curvature="0"
       sodipodi:nodetypes="ccccccccccccccsccscccccccccccc" />
  </g>
  <g
     inkscape:label="nga_dark"
     inkscape:groupmode="layer"
     id="layer1"
     transform="translate(694.89239,773.77937)"
     style="display:inline"
     sodipodi:insensitive="true">
    <path
       style="display:inline;opacity:1;fill:#204534;fill-opacity:1;fill-rule:nonzero;stroke:#000000;stroke-width:0;stroke-linecap:round;stroke-linejoin:round;stroke-miterlimit:4;stroke-dasharray:none;stroke-dashoffset:0;stroke-opacity:1"
       d="m -688.82261,-760.26768 c -1.72519,-0.002 -2.31704,1.26369 -2.30721,2.26917 l 0,0 0,2.23956 0,0 c 0.32757,0.002 0.62438,0.003 0.93576,-0.002 l 0,-1.64019 0,-0.6425 c 0,-0.71225 0.57402,-1.28999 1.28627,-1.28999 0.71225,0 1.27799,0.57774 1.27799,1.28999 l 0,2.28488 0.98166,0 0.0456,-2.27702 c -0.009,-1.34102 -1.02286,-2.23463 -2.21995,-2.23113 z"
       id="path5111"
       inkscape:connector-curvature="0"
       sodipodi:nodetypes="ccccccccccccccc" />
    <path
       style="display:inline;opacity:1;fill:#204534;fill-opacity:1;fill-rule:nonzero;stroke:#000000;stroke-width:0;stroke-linecap:round;stroke-linejoin:round;stroke-miterlimit:4;stroke-dasharray:none;stroke-dashoffset:0;stroke-opacity:1"
       d="m -683.87041,-760.25483 c -1.24985,0 -2.26214,1.01311 -2.26214,2.26212 0,1.24984 1.01229,2.26213 2.26214,2.26213 0.45565,0 0.95953,-0.13618 1.3353,-0.39277 l -0.0176,0.40518 c -0.0415,0.70811 -0.58105,1.27964 -1.28916,1.28006 -0.70852,0 -1.28419,-0.57195 -1.28999,-1.28006 l -0.9709,0 c 0,1.2486 1.01353,2.26048 2.26255,2.26048 1.24817,0 2.26047,-1.01188 2.26212,-2.26048 0.0456,-0.7528 0.0456,-2.27704 0.0456,-2.27704 0,-1.24901 -1.01271,-2.26213 -2.26213,-2.26213 z m 0,0.96427 c 0.71224,0 1.28999,0.57773 1.28999,1.28997 l 0,0 c 0.007,0.96996 -0.58614,1.27714 -1.32348,1.29124 -0.71267,0 -1.28999,-0.57733 -1.28999,-1.2904 0,-0.71182 0.57774,-1.28998 1.28999,-1.28998 z"
       id="path5113"
       inkscape:connector-curvature="0"
       sodipodi:nodetypes="cccccccccccccccccccc" />
    <path
       style="display:inline;opacity:1;fill:#204534;fill-opacity:1;fill-rule:nonzero;stroke:#000000;stroke-width:0;stroke-linecap:round;stroke-linejoin:round;stroke-miterlimit:4;stroke-dasharray:none;stroke-dashoffset:0;stroke-opacity:1"
       d="m -679.1326,-760.25483 c -1.24943,0 -2.26255,1.01311 -2.26255,2.26212 0,1.24984 1.01312,2.26213 2.26255,2.26213 0.45525,0 0.90013,-0.14071 1.27675,-0.3973 l 0,0.40971 0.98041,0 c 0.0456,-0.7528 0.0456,-2.27704 0.0456,-2.27704 0,-1.24901 -1.01312,-2.26213 -2.26213,-2.26213 z m 0,0.96427 c 0.71224,0 1.28958,0.57773 1.28958,1.28997 l 0,0 c 0.01,1.15901 -0.70485,1.30596 -1.32349,1.29124 -0.71225,0 -1.28999,-0.57733 -1.28999,-1.2904 0,-0.71182 0.57817,-1.28998 1.28999,-1.28998 z"
       id="path5117"
       inkscape:connector-curvature="0"
       sodipodi:nodetypes="cccccccccccccccc" />
  </g>
  <g
     transform="translate(694.89239,773.77937)"
     id="g4913"
     inkscape:groupmode="layer"
     inkscape:label="nga_white"
     style="display:none"
     sodipodi:insensitive="true">
    <path
       sodipodi:nodetypes="ccccccccccccccc"
       inkscape:connector-curvature="0"
       id="path4919"
       d="m -688.8378,-760.28227 c -1.72896,-0.002 -2.32214,1.26646 -2.31231,2.27417 l 0,0 0,2.24443 0,0 c 0.32839,0.002 0.6258,0.003 0.93788,-0.002 l 0,-1.64377 0,-0.64392 c 0,-0.71381 0.57526,-1.29281 1.2891,-1.29281 0.71377,0 1.28074,0.579 1.28074,1.29281 l 0,2.28991 0.98384,0 0.0454,-2.28202 c -0.007,-1.34398 -1.02512,-2.23954 -2.22481,-2.23603 z"
       style="display:inline;opacity:1;fill:#ffffff;fill-opacity:1;fill-rule:nonzero;stroke:#000000;stroke-width:0;stroke-linecap:round;stroke-linejoin:round;stroke-miterlimit:4;stroke-dasharray:none;stroke-dashoffset:0;stroke-opacity:1" />
    <path
       sodipodi:nodetypes="cccccccccccccccccccc"
       inkscape:connector-curvature="0"
       id="path4921"
       d="m -683.87473,-760.26938 c -1.25258,0 -2.26711,1.01529 -2.26711,2.26707 0,1.25258 1.01453,2.2671 2.26711,2.2671 0.45665,0 0.96163,-0.13652 1.33823,-0.39363 l -0.0199,0.4061 c -0.0414,0.70963 -0.58235,1.2824 -1.29201,1.28282 -0.71007,0 -1.28698,-0.57319 -1.29281,-1.28282 l -0.97306,0 c 0,1.25131 1.0158,2.26541 2.26752,2.26541 1.25096,0 2.26545,-1.0141 2.26714,-2.26541 0.0457,-0.75447 0.0457,-2.28209 0.0457,-2.28209 0,-1.25172 -1.01496,-2.2671 -2.26711,-2.2671 z m 0,0.96637 c 0.7138,0 1.2928,0.57901 1.2928,1.29282 l 0,0 c 0.007,0.97207 -0.58739,1.27991 -1.32634,1.29406 -0.71423,0 -1.29284,-0.57857 -1.29284,-1.29324 0,-0.7134 0.579,-1.29281 1.29284,-1.29281 z"
       style="display:inline;opacity:1;fill:#ffffff;fill-opacity:1;fill-rule:nonzero;stroke:#000000;stroke-width:0;stroke-linecap:round;stroke-linejoin:round;stroke-miterlimit:4;stroke-dasharray:none;stroke-dashoffset:0;stroke-opacity:1" />
    <path
       sodipodi:nodetypes="cccccccccccccccc"
       inkscape:connector-curvature="0"
       id="path4925"
       d="m -679.1265,-760.26938 c -1.25218,0 -2.26757,1.01529 -2.26757,2.26707 0,1.25258 1.01539,2.2671 2.26757,2.2671 0.45623,0 0.90212,-0.14116 1.27956,-0.39817 l 0,0.41064 0.98254,0 c 0.0454,-0.75447 0.0454,-2.28209 0.0454,-2.28209 0,-1.25172 -1.01532,-2.2671 -2.26707,-2.2671 z m 0,0.96637 c 0.71381,0 1.29238,0.57901 1.29238,1.29282 l 0,0 c 0.0132,1.16151 -0.70635,1.30881 -1.32641,1.29406 -0.71377,0 -1.29277,-0.57857 -1.29277,-1.29324 0,-0.7134 0.5794,-1.29281 1.29277,-1.29281 z"
       style="display:inline;opacity:1;fill:#ffffff;fill-opacity:1;fill-rule:nonzero;stroke:#000000;stroke-width:0;stroke-linecap:round;stroke-linejoin:round;stroke-miterlimit:4;stroke-dasharray:none;stroke-dashoffset:0;stroke-opacity:1" />
  </g>
  <g
     inkscape:groupmode="layer"
     id="layer4"
     inkscape:label="sp"
     style="display:inline"
     transform="translate(11.0102,-19.14202)">
    <path
       style="display:inline;opacity:1;fill:#8ba23a;fill-opacity:1;stroke:#204534;stroke-width:0;stroke-linecap:butt;stroke-linejoin:miter;stroke-miterlimit:4;stroke-dasharray:none;stroke-opacity:1"
       d="m 10.870142,34.417609 c -0.0456,-0.568645 -0.624217,-0.788052 -1.2297748,-0.799249 -0.6449566,0.0456 -1.2438737,0.05388 -1.2476102,0.619653 0.045596,0.68644 3.478629,-0.178311 3.475304,1.5226 0.0456,0.801329 -1.119863,1.43425 -2.2442852,1.425549 -1.0974611,0.04145 -2.2364104,-0.62422 -2.2413816,-1.749062 l 1.0145105,-0.0456 c 0,0.567819 0.5985059,0.773541 1.2243845,0.776855 0.6445458,0.0456 1.2438738,-0.04149 1.2488528,-0.592276 -0.0456,-0.681873 -3.4877478,0.182486 -3.4732285,-1.533382 -0.041481,-0.798013 1.1152942,-1.437578 2.2260306,-1.426378 1.1252539,-0.0456 2.2496849,0.628365 2.2484419,1.763581 l -1.001244,0.0456 z"
       id="path4917"
       inkscape:connector-curvature="0"
       sodipodi:nodetypes="cccccccscccccc" />
    <path
       sodipodi:nodetypes="cccccccccccccccccc"
       inkscape:connector-curvature="0"
       id="path4923"
       d="m 14.375214,32.697426 c -1.248852,0 -2.213397,0.964897 -2.217957,2.213749 l 3.37e-4,0.0456 0,4.549957 0,0 0.980084,0 0,-2.687669 c 0.381587,0.265461 0.829532,0.406473 1.291164,0.406473 1.251758,0 2.266687,-1.015349 2.266687,-2.267111 0,-1.252165 -1.014929,-2.267093 -2.266687,-2.267093 z m 0.09093,0.920934 c 0.714221,0 1.292818,0.579007 1.292818,1.292815 0,0.713808 -0.578597,1.292404 -1.292818,1.292404 -0.808948,2.28e-4 -1.305862,-0.603475 -1.334682,-1.291151 l 0,0 c 0,-0.713812 0.579007,-1.292828 1.292816,-1.292828 z"
       style="display:inline;opacity:1;fill:#8ba23a;fill-opacity:1;fill-rule:nonzero;stroke:#204534;stroke-width:0;stroke-linecap:round;stroke-linejoin:round;stroke-miterlimit:4;stroke-dasharray:none;stroke-dashoffset:0;stroke-opacity:1" />
  </g>
</svg>
