<?xml version="1.0" encoding="UTF-8" standalone="no"?>
<!-- Created with Inkscape (http://www.inkscape.org/) -->

<svg
   xmlns:dc="http://purl.org/dc/elements/1.1/"
   xmlns:cc="http://creativecommons.org/ns#"
   xmlns:rdf="http://www.w3.org/1999/02/22-rdf-syntax-ns#"
   xmlns:svg="http://www.w3.org/2000/svg"
   xmlns="http://www.w3.org/2000/svg"
   xmlns:sodipodi="http://sodipodi.sourceforge.net/DTD/sodipodi-0.dtd"
   xmlns:inkscape="http://www.inkscape.org/namespaces/inkscape"
   width="160mm"
   height="70mm"
   viewBox="0 0 566.92913 248.0315"
   id="svg4372"
   version="1.1"
   inkscape:version="0.91 r13725"
   sodipodi:docname="ngasp.svg">
  <defs
     id="defs4374" />
  <sodipodi:namedview
     id="base"
     pagecolor="#ffffff"
     bordercolor="#666666"
     borderopacity="1.0"
     inkscape:pageopacity="0.0"
     inkscape:pageshadow="2"
     inkscape:zoom="1.979899"
     inkscape:cx="272.06905"
     inkscape:cy="109.81468"
     inkscape:document-units="px"
     inkscape:current-layer="layer1"
     showgrid="false"
     fit-margin-top="0"
     fit-margin-left="0"
     fit-margin-right="0"
     fit-margin-bottom="0"
     inkscape:window-width="2560"
     inkscape:window-height="1376"
     inkscape:window-x="0"
     inkscape:window-y="27"
     inkscape:window-maximized="1"
     showguides="true"
     inkscape:guide-bbox="true">
    <sodipodi:guide
       position="295,118.92857"
       orientation="1,0"
       id="guide5156" />
    <sodipodi:guide
       position="304.28571,200"
       orientation="1,0"
       id="guide5158" />
    <sodipodi:guide
       position="306.70756,252.41187"
       orientation="1,0"
       id="guide5160" />
    <sodipodi:guide
       position="357.08892,109.09648"
       orientation="0,1"
       id="guide5187" />
    <sodipodi:guide
       position="354.56354,67.680221"
       orientation="0,1"
       id="guide5189" />
  </sodipodi:namedview>
  <metadata
     id="metadata4377">
    <rdf:RDF>
      <cc:Work
         rdf:about="">
        <dc:format>image/svg+xml</dc:format>
        <dc:type
           rdf:resource="http://purl.org/dc/dcmitype/StillImage" />
        <dc:title></dc:title>
      </cc:Work>
    </rdf:RDF>
  </metadata>
  <g
     inkscape:label="Layer 1"
     inkscape:groupmode="layer"
     id="layer1"
     transform="translate(1517.3883,899.07113)">
    <text
       xml:space="preserve"
       style="font-style:normal;font-weight:normal;font-size:97.44244385px;line-height:125%;font-family:sans-serif;letter-spacing:0px;word-spacing:0px;fill:#8ba23a;fill-opacity:1;stroke:none;stroke-width:1px;stroke-linecap:butt;stroke-linejoin:miter;stroke-opacity:1"
       x="-1197.4071"
       y="-754.35339"
       id="text4207-6"
       sodipodi:linespacing="125%"
       transform="scale(0.99871435,1.0012873)"><tspan
         sodipodi:role="line"
         id="tspan4209-0"
         x="-1197.4071"
         y="-754.35339"
         style="font-size:40.601017px;text-align:center;text-anchor:middle;fill:#8ba23a;fill-opacity:1" /><tspan
         sodipodi:role="line"
         x="-1197.4071"
         y="-708.8114"
         style="font-style:normal;font-variant:normal;font-weight:300;font-stretch:normal;font-size:35.98925781px;font-family:'Source Han Sans CN';-inkscape-font-specification:'Source Han Sans CN Light';text-align:end;text-anchor:end;fill:#204534;fill-opacity:1"
         id="tspan4211-7">Next</tspan><tspan
         sodipodi:role="line"
         x="-1197.4071"
         y="-663.82483"
         style="font-style:normal;font-variant:normal;font-weight:300;font-stretch:normal;font-size:35.98925781px;font-family:'Source Han Sans CN';-inkscape-font-specification:'Source Han Sans CN Light';text-align:end;text-anchor:end;fill:#204534;fill-opacity:1"
         id="tspan4237">Generation Analysis</tspan></text>
    <text
       xml:space="preserve"
       style="font-style:normal;font-weight:normal;font-size:97.44244385px;line-height:125%;font-family:sans-serif;letter-spacing:0px;word-spacing:0px;fill:#8ba23a;fill-opacity:1;stroke:none;stroke-width:1px;stroke-linecap:butt;stroke-linejoin:miter;stroke-opacity:1"
       x="-1188.0759"
       y="-708.80432"
       id="text4207-6-3"
       sodipodi:linespacing="125%"
       transform="scale(0.99871435,1.0012873)"><tspan
         sodipodi:role="line"
         x="-1188.0759"
         y="-708.80432"
         style="font-style:normal;font-variant:normal;font-weight:300;font-stretch:normal;font-size:35.98925781px;font-family:'Source Han Sans CN';-inkscape-font-specification:'Source Han Sans CN Light';text-align:start;text-anchor:start;fill:#8ba23a;fill-opacity:1"
         id="tspan4237-9">Sequencing</tspan></text>
    <path
       sodipodi:nodetypes="ccccccsccc"
       inkscape:connector-curvature="0"
       id="path4298"
       d="m -1509.8821,-792.2417 c -1.14,-42.98924 -9.1526,-90.4844 48.4075,-99.23123 44.9236,0.81003 51.1985,43.56836 50.7588,49.45419 1.172,10.4104 0,49.77704 0,49.77704 l -17.7817,0 0,-49.77704 c 0,0 0,-32.14188 -31.6875,-32.14188 -32.1437,0 -32.1437,32.14188 -32.1437,32.14188 l 0,49.77704 z"
       style="display:inline;opacity:1;fill:#204534;fill-opacity:1;stroke:#204534;stroke-width:0.55683357;stroke-linecap:butt;stroke-linejoin:miter;stroke-miterlimit:4;stroke-dasharray:none;stroke-opacity:1" />
    <path
       sodipodi:nodetypes="csscssccssccsssss"
       inkscape:connector-curvature="0"
       id="path4300"
       d="m -1353.7694,-891.80517 c -31.9433,0 -49.7053,26.30106 -49.7053,49.77734 0,23.47589 21.0157,50.44933 49.7053,49.77626 29.5193,-0.69161 31.4257,-18.38324 31.4257,-18.38324 l 0,18.38324 c 0,8.64212 -8.8293,27.32134 -31.4257,27.32134 -26.7873,0 -31.9332,-27.32134 -31.9332,-27.32134 l -17.7721,0 c 0,0 6.4569,44.68592 49.7053,44.68592 31.4598,0 49.6489,-27.8682 49.6489,-44.68592 l 0,-49.77626 c 0.038,-17.04852 -18.2171,-49.7676 -49.6489,-49.77734 z m -0.5076,17.64834 c 14.9703,0.2198 31.4586,11.62311 31.4254,32.129 -0.038,14.72653 -8.8699,31.35361 -30.9742,31.39302 -20.2769,0.0644 -31.3412,-16.55925 -31.482,-31.39302 -0.1401,-14.90427 12.9407,-32.39807 31.0308,-32.129 z"
       style="display:inline;opacity:1;fill:#204534;fill-opacity:1;stroke:#204534;stroke-width:0.55683357;stroke-linecap:butt;stroke-linejoin:miter;stroke-miterlimit:4;stroke-dasharray:none;stroke-opacity:1" />
    <path
       sodipodi:nodetypes="csscccccsssss"
       inkscape:connector-curvature="0"
       id="path4302"
       d="m -1247.1931,-891.80517 c -23.4163,0 -48.416,20.15904 -49.7055,49.77734 -1.0211,23.45391 26.2892,49.77626 49.7055,49.77626 10.669,0 21.9272,-5.4663 31.0305,-13.63167 l 0,13.63167 18.6748,0 0,-49.77626 c -1.8471,-29.40039 -24.0626,-49.37165 -49.7053,-49.77734 z m 0,17.64834 c 14.919,0.0644 31.4395,12.46481 31.6754,32.129 0.1778,14.81445 -9.1909,30.85678 -31.6754,31.39302 -19.2491,0.46197 -31.1058,-16.47397 -31.4258,-31.39302 -0.4094,-19.12453 16.5066,-32.18357 31.4258,-32.129 z"
       style="display:inline;opacity:1;fill:#204534;fill-opacity:1;stroke:#204534;stroke-width:0.55683357;stroke-linecap:butt;stroke-linejoin:miter;stroke-miterlimit:4;stroke-dasharray:none;stroke-opacity:1" />
    <path
       sodipodi:nodetypes="ccccssccsssss"
       inkscape:connector-curvature="0"
       id="path4304"
       d="m -1083.6334,-842.02783 0,94.46218 18.2233,0 0.967,-56.77441 c 9.181,8.39124 19.6692,11.32297 30.5151,11.44235 29.2191,0.32592 49.574,-25.65537 49.3264,-49.13012 -0.3216,-30.58733 -25.5878,-49.45427 -49.004,-49.45427 -34.3827,-1.6071 -50.0411,32.40575 -50.0278,49.45427 z m 50.1565,-32.129 c 14.9191,0.0644 30.6652,12.15178 31.2967,32.129 0.5806,18.37111 -14.297,31.3392 -31.2967,31.71628 -14.7389,0.32592 -31.9662,-9.68352 -32.4491,-31.71628 -0.476,-21.7061 17.5299,-32.18357 32.4491,-32.129 z"
       style="display:inline;opacity:1;fill:#8ba23a;fill-opacity:1;stroke:#8ba23a;stroke-width:0.55699998;stroke-linecap:butt;stroke-linejoin:miter;stroke-miterlimit:4;stroke-dasharray:none;stroke-opacity:1" />
    <path
       sodipodi:nodetypes="csccccsccsccc"
       inkscape:connector-curvature="0"
       id="path4306-1"
       d="m -1113.5034,-856.37767 c -8.0092,-26.97973 -49.1562,-24.31418 -52.7087,-7.01632 -1.5004,7.30549 5.2371,13.61312 14.2522,15.17752 25.3533,2.85443 56.3572,4.24981 53.1,28.50411 -5.8208,30.99397 -68.0395,40.02074 -87.7635,-2.99162 0,0 14.1599,0.37139 21.6224,0.29181 7.4688,19.52699 46.9061,17.45969 46.9493,1.74366 0,-5.90971 -5.0619,-10.5313 -12.4939,-12.10177 -21.1569,-1.58712 -56.4745,-6.09653 -53.5457,-31.56355 2.6675,-17.75901 26.8785,-28.964 46.5462,-26.9265 19.6675,2.03816 38.7939,14.41275 43.9133,35.09412 -6.9389,-0.0833 -7.4717,-0.12506 -12.3447,-0.0719 z"
       style="display:inline;opacity:1;fill:#8ba23a;fill-opacity:1;stroke:#8ba23a;stroke-width:0.55683357;stroke-linecap:butt;stroke-linejoin:miter;stroke-miterlimit:4;stroke-dasharray:none;stroke-opacity:1" />
    <text
       xml:space="preserve"
       style="font-style:normal;font-weight:normal;font-size:97.44244385px;line-height:125%;font-family:sans-serif;letter-spacing:0px;word-spacing:0px;fill:#8ba23a;fill-opacity:1;stroke:none;stroke-width:1px;stroke-linecap:butt;stroke-linejoin:miter;stroke-opacity:1"
       x="-1189.7969"
       y="-709.81116"
       id="text4207-6-3-1"
       sodipodi:linespacing="125%"
       transform="scale(0.99871435,1.0012873)"><tspan
         sodipodi:role="line"
         x="-1189.7969"
         y="-709.81116"
         style="font-style:normal;font-variant:normal;font-weight:300;font-stretch:normal;font-size:40.601017px;font-family:'Source Han Sans CN';-inkscape-font-specification:'Source Han Sans CN Light';text-align:start;text-anchor:start;fill:#8ba23a;fill-opacity:1"
         id="tspan4235-6-1" /><tspan
         sodipodi:role="line"
         x="-1189.7969"
         y="-663.57819"
         style="font-style:normal;font-variant:normal;font-weight:300;font-stretch:normal;font-size:35.98925781px;font-family:'Source Han Sans CN';-inkscape-font-specification:'Source Han Sans CN Light';text-align:start;text-anchor:start;fill:#8ba23a;fill-opacity:1"
         id="tspan4237-9-1">Polymorphism</tspan></text>
  </g>
</svg>
